<?xml version="1.0" encoding="utf-8"?>
<!-- Generator: Adobe Illustrator 27.5.0, SVG Export Plug-In . SVG Version: 6.00 Build 0)  -->
<svg version="1.1" xmlns="http://www.w3.org/2000/svg" xmlns:xlink="http://www.w3.org/1999/xlink" x="0px" y="0px"
	 viewBox="0 0 800 800" style="enable-background:new 0 0 800 800;" xml:space="preserve">
<g id="Background">
	<rect style="fill:#E5DDCC;" width="800" height="800"/>
	<path style="fill:#3B2B16;" d="M288.492,774.287v-0.257c-0.349,0.398-0.692,0.724-1.031,0.973c-0.338,0.251-0.706,0.441-1.102,0.57
		c-0.396,0.132-0.827,0.195-1.296,0.195c-0.621,0-1.196-0.131-1.725-0.394c-0.528-0.263-0.986-0.639-1.372-1.126
		c-0.387-0.487-0.68-1.06-0.879-1.719c-0.199-0.659-0.299-1.371-0.299-2.137c0-1.621,0.396-2.886,1.188-3.791
		c0.792-0.904,1.833-1.357,3.125-1.357c0.747,0,1.377,0.129,1.89,0.384c0.513,0.257,1.013,0.652,1.501,1.183v-3.827
		c0-0.532,0.105-0.934,0.318-1.206c0.211-0.273,0.514-0.408,0.907-0.408c0.393,0,0.694,0.125,0.907,0.375
		c0.212,0.251,0.318,0.618,0.318,1.106v11.436c0,0.494-0.113,0.864-0.342,1.111c-0.228,0.246-0.522,0.37-0.883,0.37
		c-0.354,0-0.647-0.128-0.879-0.384C288.607,775.127,288.492,774.761,288.492,774.287z M283.392,770.478
		c0,0.703,0.109,1.301,0.328,1.795c0.219,0.494,0.518,0.866,0.898,1.115c0.38,0.251,0.795,0.377,1.244,0.377
		c0.456,0,0.872-0.119,1.25-0.357c0.376-0.236,0.677-0.602,0.902-1.091c0.225-0.491,0.337-1.105,0.337-1.839
		c0-0.69-0.112-1.284-0.337-1.782c-0.225-0.496-0.528-0.876-0.912-1.14c-0.383-0.262-0.803-0.393-1.258-0.393
		c-0.475,0-0.899,0.135-1.273,0.403c-0.373,0.269-0.663,0.654-0.869,1.158C283.494,769.229,283.392,769.813,283.392,770.478z
		 M299.926,771.134h-5.071c0.006,0.588,0.124,1.107,0.356,1.557c0.23,0.45,0.538,0.789,0.921,1.017
		c0.383,0.229,0.806,0.341,1.268,0.341c0.31,0,0.593-0.035,0.85-0.107c0.257-0.074,0.505-0.187,0.746-0.343
		c0.241-0.154,0.462-0.321,0.664-0.499c0.202-0.178,0.464-0.419,0.788-0.723c0.133-0.113,0.323-0.171,0.571-0.171
		c0.266,0,0.48,0.074,0.644,0.22c0.165,0.146,0.248,0.351,0.248,0.617c0,0.234-0.093,0.507-0.275,0.821
		c-0.185,0.314-0.462,0.614-0.832,0.902c-0.371,0.288-0.835,0.526-1.397,0.717c-0.56,0.19-1.204,0.285-1.933,0.285
		c-1.665,0-2.96-0.476-3.884-1.425c-0.924-0.949-1.386-2.238-1.386-3.865c0-0.767,0.113-1.478,0.341-2.132
		c0.229-0.656,0.561-1.218,0.997-1.686c0.437-0.469,0.975-0.827,1.615-1.078c0.639-0.25,1.349-0.374,2.127-0.374
		c1.013,0,1.882,0.212,2.606,0.641c0.726,0.427,1.27,0.979,1.63,1.656c0.36,0.678,0.541,1.369,0.541,2.07
		c0,0.653-0.187,1.075-0.56,1.269C301.13,771.037,300.604,771.134,299.926,771.134z M294.855,769.662h4.702
		c-0.063-0.887-0.303-1.551-0.717-1.99c-0.415-0.44-0.96-0.66-1.638-0.66c-0.646,0-1.177,0.223-1.591,0.669
		C295.195,768.127,294.944,768.788,294.855,769.662z M311.741,772.377c0,0.716-0.173,1.329-0.522,1.839
		c-0.348,0.51-0.862,0.896-1.543,1.159c-0.68,0.263-1.508,0.394-2.483,0.394c-0.931,0-1.728-0.143-2.394-0.428
		c-0.664-0.284-1.156-0.642-1.472-1.067c-0.317-0.429-0.475-0.857-0.475-1.288c0-0.285,0.101-0.528,0.304-0.731
		c0.202-0.202,0.459-0.304,0.77-0.304c0.272,0,0.48,0.066,0.626,0.199c0.146,0.133,0.286,0.32,0.418,0.56
		c0.266,0.464,0.585,0.807,0.956,1.036c0.37,0.227,0.874,0.342,1.515,0.342c0.519,0,0.945-0.116,1.277-0.347
		c0.332-0.232,0.498-0.496,0.498-0.794c0-0.456-0.172-0.787-0.518-0.996c-0.345-0.209-0.914-0.409-1.705-0.6
		c-0.893-0.221-1.619-0.454-2.18-0.698c-0.561-0.242-1.008-0.565-1.344-0.963c-0.335-0.399-0.503-0.891-0.503-1.473
		c0-0.518,0.155-1.01,0.465-1.473c0.311-0.461,0.768-0.83,1.374-1.105c0.604-0.276,1.333-0.414,2.188-0.414
		c0.671,0,1.275,0.069,1.809,0.21c0.536,0.138,0.983,0.326,1.34,0.561c0.358,0.233,0.63,0.493,0.816,0.777
		c0.187,0.285,0.28,0.563,0.28,0.837c0,0.297-0.1,0.541-0.298,0.731c-0.199,0.188-0.482,0.285-0.85,0.285
		c-0.266,0-0.492-0.076-0.679-0.23c-0.186-0.151-0.4-0.379-0.641-0.683c-0.196-0.253-0.426-0.456-0.693-0.608
		c-0.266-0.152-0.627-0.228-1.083-0.228c-0.469,0-0.858,0.099-1.168,0.3c-0.31,0.198-0.465,0.446-0.465,0.744
		c0,0.273,0.114,0.496,0.341,0.67c0.229,0.175,0.535,0.319,0.922,0.433c0.386,0.113,0.917,0.252,1.596,0.417
		c0.803,0.197,1.46,0.432,1.97,0.703c0.509,0.271,0.896,0.594,1.16,0.965C311.61,771.48,311.741,771.902,311.741,772.377z
		 M314.39,764.02c-0.361,0-0.669-0.111-0.926-0.333c-0.256-0.221-0.385-0.534-0.385-0.94c0-0.368,0.131-0.669,0.394-0.907
		c0.263-0.238,0.569-0.356,0.917-0.356c0.336,0,0.633,0.107,0.893,0.323c0.26,0.216,0.39,0.528,0.39,0.94
		c0,0.399-0.127,0.711-0.381,0.936C315.039,763.907,314.738,764.02,314.39,764.02z M315.672,766.698v7.493
		c0,0.52-0.123,0.913-0.371,1.179c-0.247,0.266-0.56,0.398-0.94,0.398s-0.689-0.136-0.926-0.408
		c-0.238-0.273-0.356-0.662-0.356-1.169v-7.418c0-0.512,0.118-0.898,0.356-1.158c0.237-0.26,0.546-0.39,0.926-0.39
		s0.693,0.13,0.94,0.39C315.549,765.875,315.672,766.236,315.672,766.698z M327.031,767.125v7.531c0,0.861-0.093,1.602-0.277,2.224
		c-0.182,0.619-0.477,1.133-0.883,1.538c-0.405,0.404-0.936,0.706-1.59,0.901c-0.655,0.197-1.471,0.295-2.446,0.295
		c-0.893,0-1.69-0.125-2.394-0.375c-0.702-0.251-1.243-0.573-1.624-0.969c-0.379-0.396-0.57-0.803-0.57-1.221
		c0-0.316,0.108-0.575,0.324-0.773c0.215-0.2,0.475-0.3,0.778-0.3c0.38,0,0.712,0.168,0.997,0.503
		c0.139,0.171,0.283,0.345,0.432,0.519c0.149,0.175,0.314,0.323,0.494,0.447c0.181,0.122,0.398,0.214,0.65,0.274
		c0.253,0.059,0.545,0.09,0.874,0.09c0.671,0,1.192-0.093,1.563-0.28c0.371-0.186,0.63-0.448,0.779-0.784
		c0.149-0.334,0.236-0.693,0.261-1.077c0.025-0.384,0.044-0.999,0.057-1.849c-0.399,0.559-0.859,0.983-1.382,1.274
		c-0.522,0.291-1.145,0.437-1.866,0.437c-0.868,0-1.626-0.222-2.275-0.665c-0.648-0.443-1.147-1.063-1.495-1.861
		c-0.349-0.799-0.522-1.719-0.522-2.764c0-0.778,0.105-1.482,0.317-2.108c0.213-0.628,0.515-1.156,0.907-1.587
		c0.393-0.431,0.845-0.755,1.358-0.974c0.513-0.218,1.076-0.327,1.691-0.327c0.734,0,1.371,0.142,1.909,0.422
		c0.538,0.283,1.039,0.725,1.501,1.326v-0.352c0-0.449,0.11-0.797,0.332-1.045c0.222-0.246,0.507-0.37,0.855-0.37
		c0.5,0,0.832,0.164,0.997,0.489C326.948,766.041,327.031,766.511,327.031,767.125z M319.518,770.412
		c0,1.051,0.229,1.846,0.688,2.384c0.459,0.539,1.053,0.808,1.781,0.808c0.43,0,0.837-0.116,1.22-0.347
		c0.384-0.232,0.695-0.58,0.937-1.045c0.24-0.466,0.361-1.03,0.361-1.695c0-1.057-0.232-1.881-0.698-2.469
		c-0.466-0.589-1.078-0.884-1.838-0.884c-0.741,0-1.334,0.282-1.78,0.846C319.741,768.572,319.518,769.374,319.518,770.412z
		 M331.152,766.66v0.313c0.455-0.602,0.954-1.043,1.496-1.325c0.542-0.281,1.163-0.423,1.866-0.423c0.684,0,1.295,0.149,1.833,0.447
		c0.538,0.298,0.941,0.719,1.206,1.262c0.172,0.317,0.282,0.66,0.333,1.026c0.051,0.368,0.077,0.836,0.077,1.406v4.824
		c0,0.52-0.119,0.913-0.357,1.179c-0.237,0.266-0.546,0.398-0.926,0.398c-0.387,0-0.7-0.136-0.94-0.408
		c-0.241-0.273-0.361-0.662-0.361-1.169v-4.321c0-0.854-0.119-1.509-0.356-1.961c-0.238-0.452-0.71-0.68-1.42-0.68
		c-0.461,0-0.883,0.138-1.263,0.413c-0.38,0.276-0.659,0.655-0.836,1.136c-0.127,0.387-0.19,1.107-0.19,2.165v3.248
		c0,0.525-0.123,0.921-0.365,1.184c-0.244,0.263-0.559,0.394-0.945,0.394c-0.375,0-0.681-0.136-0.922-0.408
		c-0.24-0.273-0.361-0.662-0.361-1.169v-7.493c0-0.494,0.107-0.863,0.323-1.107c0.215-0.243,0.51-0.365,0.883-0.365
		c0.229,0,0.435,0.054,0.619,0.162c0.183,0.108,0.331,0.269,0.441,0.483C331.097,766.086,331.152,766.35,331.152,766.66z
		 M346.926,771.134h-5.071c0.007,0.588,0.125,1.107,0.356,1.557c0.231,0.45,0.538,0.789,0.921,1.017
		c0.382,0.229,0.805,0.341,1.267,0.341c0.31,0,0.594-0.035,0.851-0.107c0.255-0.074,0.504-0.187,0.746-0.343
		c0.24-0.154,0.461-0.321,0.665-0.499c0.202-0.178,0.464-0.419,0.788-0.723c0.133-0.113,0.323-0.171,0.57-0.171
		c0.266,0,0.482,0.074,0.646,0.22c0.165,0.146,0.247,0.351,0.247,0.617c0,0.234-0.091,0.507-0.275,0.821
		c-0.184,0.314-0.461,0.614-0.831,0.902c-0.371,0.288-0.835,0.526-1.396,0.717c-0.561,0.19-1.205,0.285-1.933,0.285
		c-1.665,0-2.96-0.476-3.885-1.425c-0.923-0.949-1.386-2.238-1.386-3.865c0-0.767,0.114-1.478,0.342-2.132
		c0.228-0.656,0.561-1.218,0.998-1.686c0.437-0.469,0.975-0.827,1.614-1.078c0.639-0.25,1.349-0.374,2.128-0.374
		c1.013,0,1.881,0.212,2.606,0.641c0.726,0.427,1.269,0.979,1.63,1.656c0.36,0.678,0.542,1.369,0.542,2.07
		c0,0.653-0.187,1.075-0.561,1.269C348.13,771.037,347.605,771.134,346.926,771.134z M341.855,769.662h4.701
		c-0.063-0.887-0.302-1.551-0.717-1.99c-0.415-0.44-0.961-0.66-1.638-0.66c-0.646,0-1.177,0.223-1.592,0.669
		C342.194,768.127,341.944,768.788,341.855,769.662z M357.496,774.287v-0.257c-0.348,0.398-0.691,0.724-1.03,0.973
		c-0.339,0.251-0.706,0.441-1.102,0.57c-0.395,0.132-0.828,0.195-1.296,0.195c-0.622,0-1.196-0.131-1.724-0.394
		c-0.529-0.263-0.986-0.639-1.373-1.126c-0.387-0.487-0.679-1.06-0.878-1.719c-0.2-0.659-0.299-1.371-0.299-2.137
		c0-1.621,0.395-2.886,1.187-3.791c0.791-0.904,1.833-1.357,3.125-1.357c0.747,0,1.378,0.129,1.89,0.384
		c0.513,0.257,1.013,0.652,1.5,1.183v-3.827c0-0.532,0.106-0.934,0.319-1.206c0.211-0.273,0.515-0.408,0.907-0.408
		c0.392,0,0.694,0.125,0.907,0.375c0.212,0.251,0.318,0.618,0.318,1.106v11.436c0,0.494-0.114,0.864-0.342,1.111
		c-0.228,0.246-0.522,0.37-0.883,0.37c-0.354,0-0.647-0.128-0.879-0.384C357.612,775.127,357.496,774.761,357.496,774.287z
		 M352.396,770.478c0,0.703,0.108,1.301,0.327,1.795c0.218,0.494,0.518,0.866,0.898,1.115c0.379,0.251,0.794,0.377,1.243,0.377
		c0.457,0,0.873-0.119,1.249-0.357c0.377-0.236,0.678-0.602,0.902-1.091c0.225-0.491,0.337-1.105,0.337-1.839
		c0-0.69-0.112-1.284-0.337-1.782c-0.224-0.496-0.528-0.876-0.912-1.14c-0.384-0.262-0.803-0.393-1.259-0.393
		c-0.474,0-0.899,0.135-1.273,0.403c-0.373,0.269-0.663,0.654-0.869,1.158C352.499,769.229,352.396,769.813,352.396,770.478z
		 M368.094,762.851v3.96c0.487-0.506,0.984-0.895,1.491-1.163c0.506-0.269,1.134-0.403,1.881-0.403c0.861,0,1.616,0.204,2.266,0.611
		c0.648,0.41,1.151,1.002,1.51,1.777c0.357,0.774,0.537,1.695,0.537,2.76c0,0.785-0.1,1.504-0.299,2.16
		c-0.2,0.655-0.49,1.224-0.869,1.704c-0.38,0.481-0.841,0.854-1.382,1.117c-0.542,0.263-1.139,0.394-1.79,0.394
		c-0.4,0-0.775-0.047-1.126-0.143c-0.352-0.095-0.651-0.219-0.898-0.375c-0.246-0.154-0.457-0.314-0.631-0.479
		c-0.174-0.164-0.404-0.412-0.689-0.741v0.257c0,0.487-0.117,0.856-0.352,1.107c-0.233,0.25-0.531,0.374-0.892,0.374
		c-0.367,0-0.66-0.124-0.879-0.374c-0.219-0.251-0.328-0.62-0.328-1.107v-11.322c0-0.525,0.106-0.923,0.317-1.191
		c0.212-0.269,0.509-0.403,0.889-0.403c0.399,0,0.706,0.128,0.921,0.384C367.986,762.011,368.094,762.375,368.094,762.851z
		 M368.218,770.554c0,1.032,0.236,1.824,0.708,2.378c0.472,0.555,1.091,0.833,1.857,0.833c0.652,0,1.214-0.283,1.685-0.851
		c0.472-0.567,0.708-1.379,0.708-2.437c0-0.684-0.097-1.273-0.294-1.767c-0.197-0.494-0.475-0.876-0.835-1.145
		c-0.361-0.268-0.783-0.403-1.264-0.403c-0.494,0-0.935,0.135-1.32,0.403c-0.386,0.269-0.69,0.658-0.912,1.168
		C368.329,769.244,368.218,769.851,368.218,770.554z M379.14,776.091l0.237-0.58l-3.191-8.035c-0.196-0.461-0.295-0.798-0.295-1.007
		c0-0.222,0.058-0.427,0.171-0.616c0.114-0.19,0.271-0.343,0.47-0.456c0.2-0.115,0.407-0.172,0.622-0.172
		c0.373,0,0.655,0.119,0.846,0.357c0.19,0.237,0.357,0.577,0.503,1.021l2.194,6.383l2.08-5.937c0.164-0.479,0.313-0.857,0.446-1.13
		c0.133-0.273,0.273-0.456,0.422-0.55c0.149-0.096,0.359-0.144,0.632-0.144c0.197,0,0.385,0.052,0.565,0.157
		c0.18,0.104,0.319,0.245,0.417,0.423c0.098,0.177,0.148,0.363,0.148,0.56c-0.026,0.12-0.066,0.291-0.124,0.514
		c-0.058,0.221-0.126,0.447-0.209,0.674l-3.381,8.852c-0.292,0.778-0.577,1.389-0.855,1.832c-0.279,0.443-0.647,0.785-1.106,1.021
		c-0.46,0.238-1.078,0.357-1.857,0.357c-0.759,0-1.33-0.082-1.708-0.246c-0.381-0.166-0.57-0.467-0.57-0.903
		c0-0.297,0.089-0.527,0.271-0.688c0.18-0.161,0.448-0.243,0.801-0.243c0.14,0,0.276,0.02,0.409,0.059
		c0.165,0.037,0.307,0.057,0.427,0.057c0.297,0,0.532-0.044,0.704-0.134c0.17-0.088,0.324-0.241,0.461-0.461
		C378.806,776.837,378.963,776.515,379.14,776.091z M416.703,765.45c-0.869,0-1.304,0.308-1.304,0.932
		c0,0.278,0.105,0.507,0.315,0.678c0.211,0.178,0.505,0.262,0.893,0.262h0.714v6.871c0,0.511,0.12,0.9,0.364,1.168
		c0.247,0.272,0.551,0.406,0.918,0.406c0.389,0,0.701-0.134,0.942-0.406c0.249-0.268,0.369-0.657,0.369-1.168v-6.871h0.633
		c0.465,0,0.827-0.057,1.089-0.171c0.266-0.114,0.393-0.386,0.393-0.805c0-0.599-0.49-0.895-1.481-0.895h-0.633v-0.617
		c0-0.516,0.068-0.909,0.195-1.185c0.139-0.274,0.438-0.415,0.905-0.415c0.171,0,0.386,0.022,0.623,0.056
		c0.249,0.041,0.428,0.06,0.527,0.06c0.215,0,0.403-0.087,0.558-0.256c0.161-0.171,0.24-0.377,0.24-0.615
		c0-0.747-0.753-1.114-2.272-1.114c-0.854,0-1.526,0.109-2.017,0.326c-0.491,0.219-0.843,0.566-1.047,1.045
		c-0.207,0.481-0.307,1.123-0.307,1.938v0.778H416.703 M425.192,772.024c0-0.778,0.023-1.44,0.071-1.982
		c0.054-0.539,0.143-1.01,0.272-1.404c0.134-0.39,0.322-0.682,0.564-0.887c0.239-0.195,0.552-0.298,0.932-0.298
		c0.275,0,0.598,0.06,0.963,0.173c0.361,0.117,0.593,0.18,0.692,0.18c0.252,0,0.486-0.103,0.706-0.312
		c0.216-0.201,0.326-0.467,0.326-0.781c0-0.448-0.256-0.811-0.771-1.085c-0.513-0.273-1.036-0.408-1.585-0.408
		c-0.547,0-0.977,0.135-1.31,0.408c-0.324,0.273-0.641,0.674-0.948,1.208c-0.023-0.534-0.128-0.935-0.317-1.208
		c-0.19-0.273-0.5-0.408-0.934-0.408c-0.841,0-1.261,0.583-1.261,1.749v7.223c0,0.518,0.124,0.91,0.36,1.174
		c0.239,0.27,0.545,0.4,0.927,0.4c0.379,0,0.69-0.129,0.938-0.395c0.241-0.261,0.374-0.656,0.374-1.18V772.024 M437.113,771.131
		h-5.074c0.009,0.588,0.124,1.11,0.354,1.559c0.235,0.446,0.54,0.786,0.925,1.017c0.385,0.227,0.804,0.34,1.268,0.34
		c0.311,0,0.593-0.033,0.85-0.111c0.254-0.069,0.505-0.186,0.745-0.341c0.242-0.152,0.46-0.318,0.664-0.5
		c0.202-0.175,0.467-0.416,0.79-0.719c0.135-0.113,0.324-0.174,0.568-0.174c0.269,0,0.481,0.074,0.649,0.222
		c0.166,0.147,0.243,0.351,0.243,0.617c0,0.235-0.089,0.508-0.268,0.819c-0.188,0.317-0.463,0.616-0.836,0.906
		c-0.374,0.285-0.839,0.527-1.397,0.714c-0.56,0.19-1.206,0.286-1.932,0.286c-1.671,0-2.964-0.473-3.887-1.422
		c-0.924-0.952-1.392-2.242-1.392-3.868c0-0.767,0.117-1.478,0.348-2.135c0.225-0.658,0.558-1.216,0.999-1.688
		c0.436-0.471,0.97-0.828,1.612-1.078c0.638-0.249,1.347-0.374,2.128-0.374c1.011,0,1.881,0.214,2.606,0.646
		c0.724,0.423,1.273,0.977,1.629,1.654c0.361,0.681,0.542,1.368,0.542,2.074c0,0.648-0.189,1.07-0.562,1.266
		C438.315,771.035,437.791,771.131,437.113,771.131 M432.039,769.657h4.701c-0.063-0.885-0.298-1.55-0.714-1.986
		c-0.418-0.442-0.959-0.66-1.641-0.66c-0.646,0-1.177,0.22-1.592,0.669C432.38,768.125,432.126,768.784,432.039,769.657
		 M447.9,771.131h-5.073c0.006,0.588,0.125,1.11,0.355,1.559c0.231,0.446,0.539,0.786,0.921,1.017
		c0.383,0.227,0.806,0.34,1.271,0.34c0.308,0,0.593-0.033,0.845-0.111c0.259-0.069,0.506-0.186,0.75-0.341
		c0.242-0.152,0.46-0.318,0.664-0.5c0.199-0.175,0.464-0.416,0.788-0.719c0.135-0.113,0.326-0.174,0.568-0.174
		c0.268,0,0.483,0.074,0.65,0.222c0.165,0.147,0.24,0.351,0.24,0.617c0,0.235-0.087,0.508-0.273,0.819
		c-0.177,0.317-0.455,0.616-0.83,0.906c-0.37,0.285-0.84,0.527-1.396,0.714c-0.558,0.19-1.208,0.286-1.935,0.286
		c-1.667,0-2.959-0.473-3.887-1.422c-0.924-0.952-1.389-2.242-1.389-3.868c0-0.767,0.116-1.478,0.348-2.135
		c0.227-0.658,0.559-1.216,0.996-1.688c0.436-0.471,0.973-0.828,1.614-1.078c0.638-0.249,1.351-0.374,2.129-0.374
		c1.009,0,1.878,0.214,2.613,0.646c0.72,0.423,1.266,0.977,1.621,1.654c0.359,0.681,0.545,1.368,0.545,2.074
		c0,0.648-0.191,1.07-0.561,1.266C449.1,771.035,448.576,771.131,447.9,771.131 M442.827,769.657h4.701
		c-0.063-0.885-0.304-1.55-0.715-1.986c-0.421-0.442-0.962-0.66-1.643-0.66c-0.646,0-1.176,0.22-1.593,0.669
		C443.165,768.125,442.911,768.784,442.827,769.657 M453.58,766.679v0.311c0.486-0.601,0.994-1.042,1.524-1.324
		c0.519-0.284,1.118-0.427,1.782-0.427c0.795,0,1.535,0.208,2.207,0.617c0.671,0.414,1.198,1.016,1.589,1.807
		c0.39,0.795,0.586,1.729,0.586,2.813c0,0.796-0.112,1.531-0.336,2.201c-0.224,0.668-0.537,1.227-0.929,1.68
		c-0.394,0.45-0.855,0.802-1.39,1.046c-0.542,0.241-1.111,0.363-1.728,0.363c-0.738,0-1.364-0.148-1.865-0.447
		c-0.503-0.292-0.982-0.733-1.441-1.306v3.893c0,1.136-0.416,1.71-1.244,1.71c-0.49,0-0.809-0.146-0.972-0.44
		c-0.151-0.299-0.233-0.724-0.233-1.291v-11.193c0-0.495,0.106-0.859,0.32-1.107c0.215-0.239,0.512-0.364,0.885-0.364
		c0.369,0,0.666,0.125,0.896,0.374C453.467,765.848,453.58,766.205,453.58,766.679 M458.664,770.447
		c0-0.684-0.107-1.273-0.315-1.763c-0.209-0.492-0.499-0.867-0.866-1.128c-0.367-0.263-0.782-0.396-1.232-0.396
		c-0.714,0-1.318,0.284-1.809,0.844c-0.492,0.566-0.739,1.396-0.739,2.493c0,1.026,0.244,1.833,0.735,2.406
		c0.487,0.573,1.086,0.858,1.813,0.858c0.429,0,0.83-0.126,1.197-0.372c0.371-0.253,0.665-0.627,0.884-1.127
		C458.553,771.76,458.664,771.155,458.664,770.447 M463.88,764.013c-0.362,0-0.669-0.114-0.923-0.335
		c-0.26-0.223-0.388-0.532-0.388-0.937c0-0.368,0.131-0.67,0.396-0.91c0.262-0.234,0.566-0.356,0.914-0.356
		c0.34,0,0.636,0.107,0.894,0.319c0.26,0.219,0.391,0.534,0.391,0.946c0,0.399-0.127,0.711-0.378,0.936
		C464.532,763.899,464.231,764.013,463.88,764.013 M465.164,766.692v7.502c0,0.516-0.124,0.908-0.37,1.172
		c-0.25,0.27-0.561,0.4-0.941,0.4c-0.381,0-0.685-0.134-0.928-0.406c-0.233-0.276-0.355-0.665-0.355-1.166v-7.428
		c0-0.51,0.122-0.895,0.355-1.154c0.243-0.265,0.547-0.392,0.928-0.392c0.381,0,0.691,0.127,0.941,0.392
		C465.04,765.872,465.164,766.234,465.164,766.692 M473.523,774.583c0.29,0.444,0.527,0.755,0.697,0.928
		c0.17,0.175,0.417,0.256,0.733,0.256c0.362,0,0.661-0.117,0.886-0.354c0.227-0.241,0.341-0.563,0.341-0.976
		c0-0.143-0.046-0.303-0.13-0.462c-0.085-0.162-0.23-0.393-0.424-0.706l-2.659-4.183l1.377-1.263
		c0.701-0.633,1.055-1.143,1.055-1.521c0-0.308-0.109-0.567-0.32-0.773c-0.222-0.205-0.489-0.309-0.815-0.309
		c-0.271,0-0.5,0.069-0.69,0.208c-0.194,0.138-0.465,0.402-0.827,0.778l-2.916,3.063v-6.293c0-0.528-0.119-0.932-0.353-1.202
		c-0.236-0.274-0.55-0.411-0.949-0.411c-0.408,0-0.73,0.148-0.953,0.452c-0.217,0.303-0.331,0.74-0.331,1.313v11.063
		c0,0.518,0.117,0.91,0.344,1.174c0.226,0.27,0.542,0.4,0.94,0.4c0.34,0,0.65-0.134,0.906-0.406c0.264-0.268,0.396-0.65,0.396-1.149
		v-2.065l1.408-1.328L473.523,774.583 M479.159,775.766c0.379,0,0.711-0.126,0.998-0.386c0.279-0.252,0.422-0.607,0.422-1.06
		c0-0.39-0.143-0.727-0.422-1.002c-0.287-0.273-0.625-0.412-1.022-0.412c-0.4,0-0.733,0.14-1.008,0.419
		c-0.272,0.276-0.41,0.609-0.41,0.995c0,0.459,0.145,0.815,0.429,1.065C478.432,775.64,478.767,775.766,479.159,775.766
		 M492.057,772.556c0-0.271-0.106-0.529-0.317-0.77c-0.206-0.239-0.47-0.362-0.786-0.362c-0.267,0-0.493,0.086-0.676,0.249
		c-0.182,0.166-0.35,0.393-0.509,0.684c-0.284,0.495-0.61,0.861-0.986,1.102c-0.37,0.24-0.815,0.36-1.337,0.36
		c-0.383,0-0.739-0.072-1.064-0.226c-0.322-0.149-0.596-0.367-0.826-0.654c-0.23-0.288-0.403-0.637-0.521-1.044
		c-0.12-0.408-0.183-0.859-0.183-1.348c0-1.034,0.235-1.858,0.703-2.454c0.47-0.6,1.092-0.898,1.853-0.898
		c0.533,0,0.971,0.119,1.314,0.362c0.35,0.237,0.679,0.601,0.996,1.079c0.174,0.252,0.335,0.43,0.479,0.542
		c0.143,0.109,0.322,0.166,0.541,0.166c0.323,0,0.604-0.109,0.839-0.324c0.229-0.216,0.343-0.479,0.343-0.787
		c0-0.307-0.101-0.636-0.308-0.987c-0.204-0.349-0.503-0.678-0.89-0.992c-0.393-0.308-0.864-0.563-1.425-0.759
		c-0.564-0.197-1.179-0.295-1.853-0.295c-1.078,0-2.015,0.222-2.794,0.67c-0.777,0.446-1.374,1.079-1.781,1.894
		c-0.415,0.818-0.619,1.757-0.619,2.824c0,1.57,0.45,2.824,1.346,3.76c0.899,0.932,2.151,1.401,3.758,1.401
		c0.75,0,1.43-0.104,2.03-0.307c0.603-0.201,1.1-0.472,1.495-0.804c0.397-0.332,0.694-0.68,0.886-1.05
		C491.961,773.224,492.057,772.877,492.057,772.556 M503.248,770.496c0,0.769-0.122,1.484-0.355,2.139
		c-0.247,0.652-0.592,1.213-1.05,1.679c-0.455,0.469-1.002,0.828-1.632,1.08c-0.64,0.247-1.35,0.375-2.139,0.375
		c-0.785,0-1.493-0.128-2.121-0.383c-0.623-0.249-1.171-0.614-1.626-1.082c-0.461-0.477-0.809-1.034-1.052-1.677
		c-0.229-0.644-0.351-1.355-0.351-2.131c0-0.786,0.124-1.506,0.358-2.158c0.242-0.654,0.589-1.212,1.039-1.673
		c0.451-0.462,0.993-0.817,1.631-1.07c0.643-0.249,1.35-0.374,2.121-0.374c0.784,0,1.498,0.125,2.139,0.382
		c0.638,0.251,1.183,0.614,1.643,1.079c0.458,0.475,0.803,1.029,1.04,1.672C503.128,769.004,503.248,769.713,503.248,770.496
		 M500.644,770.496c0-1.059-0.234-1.881-0.698-2.469c-0.463-0.596-1.09-0.888-1.874-0.888c-0.508,0-0.955,0.132-1.343,0.394
		c-0.387,0.262-0.681,0.649-0.89,1.164c-0.209,0.514-0.316,1.113-0.316,1.799c0,0.679,0.103,1.267,0.31,1.773
		c0.208,0.511,0.502,0.897,0.886,1.166c0.386,0.267,0.835,0.404,1.353,0.404c0.784,0,1.411-0.296,1.874-0.892
		C500.41,772.357,500.644,771.537,500.644,770.496 M513.14,770.686c0-1.11,0.099-1.885,0.284-2.323
		c0.174-0.336,0.414-0.614,0.721-0.813c0.308-0.201,0.632-0.308,0.974-0.308c0.423,0,0.741,0.116,0.953,0.344
		c0.206,0.227,0.336,0.51,0.383,0.847c0.046,0.335,0.069,0.779,0.069,1.338v4.361c0,0.538,0.126,0.946,0.376,1.224
		c0.251,0.273,0.57,0.412,0.965,0.412c0.404,0,0.733-0.136,0.979-0.408c0.245-0.276,0.367-0.681,0.367-1.228v-5.063
		c0-1.007-0.109-1.744-0.33-2.217c-0.255-0.516-0.638-0.917-1.148-1.195c-0.513-0.276-1.128-0.419-1.834-0.419
		c-0.609,0-1.162,0.129-1.662,0.386c-0.501,0.258-0.971,0.652-1.41,1.181c-0.307-0.521-0.69-0.916-1.16-1.177
		c-0.467-0.259-1.026-0.39-1.678-0.39c-0.631,0-1.196,0.126-1.713,0.386c-0.51,0.249-0.991,0.646-1.444,1.181v-0.245
		c0-0.418-0.118-0.746-0.354-0.984c-0.24-0.232-0.535-0.355-0.892-0.355c-0.363,0-0.66,0.125-0.89,0.382
		c-0.224,0.251-0.335,0.622-0.335,1.111v7.419c0,0.538,0.124,0.946,0.376,1.224c0.25,0.273,0.571,0.412,0.967,0.412
		c0.397,0,0.716-0.139,0.965-0.412c0.239-0.277,0.361-0.686,0.361-1.224v-3.502c0-1.094,0.139-1.931,0.406-2.507
		c0.27-0.591,0.826-0.881,1.677-0.881c0.422,0,0.734,0.116,0.931,0.352c0.194,0.227,0.316,0.529,0.362,0.883
		c0.043,0.362,0.063,0.871,0.063,1.524v4.131c0,0.547,0.125,0.951,0.372,1.228c0.237,0.272,0.559,0.408,0.951,0.408
		c0.406,0,0.727-0.136,0.977-0.408c0.249-0.276,0.369-0.681,0.369-1.228V770.686 M392.433,769.85c0,0.008,0,0.013,0.002,0.018
		C392.433,769.863,392.433,769.858,392.433,769.85z M392.566,770.697c0.002,0,0.002,0,0.003,0c-0.05-0.236-0.088-0.471-0.119-0.702
		C392.48,770.228,392.519,770.463,392.566,770.697z M393.424,773.103c-0.006-0.01-0.011-0.021-0.017-0.033
		C393.413,773.082,393.418,773.093,393.424,773.103z M393.342,772.943c-0.022-0.044-0.044-0.09-0.065-0.134
		C393.298,772.856,393.32,772.899,393.342,772.943z M392.807,771.624c0.127,0.4,0.28,0.788,0.457,1.158
		c-0.18-0.378-0.33-0.767-0.454-1.158C392.809,771.624,392.808,771.624,392.807,771.624z M402.473,759.931
		c0.501,0,0.871,0.04,1.295,0.111l0.12-0.763c0,0-1.171-0.36-2.71-0.234l-0.121-0.415c0.479-0.101,0.838-0.526,0.838-1.034
		c0-0.582-0.474-1.054-1.057-1.054c-0.583,0-1.056,0.472-1.056,1.054c0,0.508,0.358,0.934,0.836,1.034l0.134,0.463
		c-1.634,0.225-2.935,0.862-2.935,0.862l0.23,0.705c0.989-0.329,1.846-0.529,2.624-0.613
		C401.432,759.966,402.005,759.931,402.473,759.931z M393.405,763.79l0.006-0.008c0.038-0.05,0.076-0.097,0.113-0.143l-0.313-0.226
		l-0.488-0.356c-0.027,0.038-0.795,0.744-1.401,2.048c-0.025-0.041-0.056-0.081-0.09-0.119c-0.182-0.198-0.436-0.3-0.758-0.294
		c-0.004,0-0.009,0-0.015,0c-0.2,0-0.337-0.066-0.427-0.147c0.089-0.113,0.143-0.256,0.143-0.413c0-0.368-0.3-0.669-0.669-0.669
		c-0.369,0-0.668,0.301-0.668,0.669c0,0.37,0.3,0.669,0.668,0.669c0.058,0,0.113-0.01,0.167-0.021
		c0.165,0.183,0.425,0.342,0.808,0.334c0.197-0.002,0.341,0.049,0.438,0.155c0.111,0.121,0.148,0.296,0.16,0.428
		c-0.001,0.002-0.001,0.005-0.003,0.005c-0.436,1.189-0.311,2.67-0.311,2.67l1.057,0.042c0.021-0.539,0.099-1.482,0.372-2.23
		C392.719,764.734,393.378,763.828,393.405,763.79z M411.672,760.815c-0.368,0-0.669,0.299-0.669,0.669
		c0,0.058,0.009,0.112,0.023,0.165c-0.184,0.166-0.343,0.428-0.337,0.81c0.003,0.197-0.048,0.34-0.154,0.437
		c-0.085,0.075-0.191,0.115-0.296,0.141c-0.787-1.103-1.756-1.775-1.756-1.775l-0.759,0.814c0.573,0.521,1.159,1.175,1.729,1.99
		c0.394,0.563,0.799,1.29,1.136,2.015l1.024-0.486c0,0-0.468-1.155-1.126-2.191c0.114-0.04,0.229-0.103,0.331-0.192
		c0.2-0.181,0.299-0.436,0.293-0.758c-0.002-0.208,0.066-0.349,0.148-0.441c0.114,0.087,0.257,0.143,0.412,0.143
		c0.371,0,0.67-0.3,0.67-0.669C412.342,761.114,412.043,760.815,411.672,760.815z M409.015,770.017
		c-1.409,0.687-3.728,1.594-6.781,2.02c-1.198,0.166-2.359,0.228-3.428,0.228c-1.391,0-2.62-0.104-3.563-0.223
		c-1.076-0.136-1.918-0.302-2.432-0.418c0.124,0.392,0.273,0.78,0.454,1.158c0.003,0.01,0.008,0.021,0.013,0.027
		c0.022,0.044,0.043,0.09,0.065,0.134c0.022,0.044,0.043,0.087,0.065,0.127c0.006,0.012,0.011,0.023,0.017,0.033
		c0.303,0.57,0.667,1.095,1.081,1.549c1.44,1.575,2.907,1.824,2.921,1.826l0.023,0.003l0.021,0.008
		c0.013,0.005,1.314,0.425,3.292,0.425c1.945,0,3.854-0.393,5.674-1.167c1.348-0.689,2.622-1.736,3.254-2.67
		c0.488-0.723,0.841-1.493,1.05-2.294c0.111-0.426,0.199-1.107,0.147-1.825C410.49,769.224,409.863,769.604,409.015,770.017z
		 M393.857,764.124c-0.041,0.06-0.652,0.925-1.135,2.253c-0.362,0.995-0.346,2.443-0.346,2.46v0.003c0,0.34,0.019,0.677,0.057,1.011
		c0,0.008,0,0.013,0.002,0.018c0.004,0.043,0.011,0.084,0.015,0.127c0.03,0.231,0.069,0.466,0.119,0.702
		c0.7,0.178,4.878,1.152,9.548,0.502c2.927-0.407,5.149-1.273,6.499-1.927c1.121-0.544,1.842-1.036,2.12-1.238
		c-0.277-1.028-1.042-2.641-1.743-3.646c-2.005-2.865-4.167-3.601-5.277-3.783c-0.424-0.069-0.763-0.109-1.243-0.109
		c-0.447,0-1.002,0.036-1.743,0.114c-0.743,0.077-1.572,0.273-2.532,0.596c-1.348,0.451-2.567,1.159-3.527,2.048l-0.033,0.03
		C394.495,763.414,394.199,763.689,393.857,764.124z M406.127,763.457c0.961,0,1.743,0.781,1.743,1.743
		c0,0.962-0.782,1.744-1.743,1.744c-0.962,0-1.742-0.782-1.742-1.744C404.385,764.238,405.165,763.457,406.127,763.457z
		 M397.885,763.387c1.557,0,2.817,1.262,2.817,2.817c0,1.556-1.26,2.815-2.817,2.815c-1.555,0-2.816-1.259-2.816-2.815
		C395.069,764.649,396.33,763.387,397.885,763.387z"/>
</g>
<g id="Objects">
	<g>
		<path style="fill:#3B2B16;" d="M503.102,687.263c-1.63-3.153-4.204-5.74-7.054-7.558c-2.864-1.832-5.975-3.001-9.099-3.77
			c-1.566-0.384-3.142-0.666-4.725-0.862c-0.634-0.079-1.272-0.132-1.91-0.181c0.008-0.164,0.021-0.329,0.028-0.493
			c0.05-1.12,0.06-2.231,0.059-3.34c-0.008-2.217-0.108-4.42-0.274-6.612c-0.332-4.385-0.92-8.731-1.721-13.028
			c-1.593-8.598-4.051-16.986-7.058-25.138c-1.506-4.077-3.187-8.082-4.971-12.035c-1.766-3.956-3.745-7.833-5.736-11.651
			c-3.991-7.591-7.963-15.171-11.617-22.875c-3.645-7.704-6.882-15.581-9.205-23.748c-2.339-8.161-3.779-16.578-4.593-25.075
			c-0.405-4.249-0.702-8.516-0.858-12.792c-0.173-4.276-0.247-8.558-0.268-12.844c-0.039-4.285,0.014-8.573,0.08-12.862
			c0.076-4.288,0.196-8.577,0.334-12.865c-0.308,4.28-0.598,8.561-0.844,12.846c-0.237,4.285-0.459,8.574-0.591,12.867
			c-0.153,4.293-0.196,8.591-0.171,12.892c0.015,4.301,0.172,8.606,0.44,12.909c0.279,4.302,0.685,8.606,1.334,12.884
			c0.646,4.278,1.499,8.532,2.579,12.732c2.146,8.409,5.237,16.547,8.714,24.444c3.467,7.91,7.327,15.604,11.152,23.286
			c1.895,3.83,3.737,7.639,5.385,11.555c1.662,3.903,3.22,7.848,4.601,11.851c2.771,8.001,4.934,16.198,6.364,24.494
			c0.707,4.148,1.205,8.326,1.456,12.5c0.126,2.087,0.188,4.174,0.163,6.246c-0.015,1.035-0.041,2.07-0.102,3.092
			c-0.03,0.51-0.064,1.021-0.11,1.521c-0.042,0.484-0.101,1.038-0.157,1.415l-0.456,3.082l3.174,0.021
			c0.568,0.004,1.32,0.043,1.991,0.099c0.691,0.058,1.384,0.134,2.072,0.232c1.378,0.194,2.744,0.463,4.074,0.813
			c2.659,0.698,5.192,1.728,7.345,3.161c2.15,1.434,3.881,3.275,4.97,5.462c0.673,1.328,1.103,2.783,1.335,4.309l-55.617-0.273
			l-29.413-0.136l-27.579-0.043c-4.961-7.266-9.085-15.102-12.235-23.333c-3.377-8.775-5.706-17.961-7.081-27.299
			c-1.367-9.34-1.837-18.83-1.477-28.293c0.182-4.731,0.575-9.457,1.175-14.151c0.304-2.346,0.658-4.684,1.074-7.004
			c0.208-1.16,0.431-2.315,0.672-3.461c0.111-0.525,0.229-1.065,0.35-1.595c1.928-0.675,3.868-1.301,5.841-1.744
			c2.547-0.614,5.123-1.067,7.704-1.247c2.578-0.197,5.165-0.215,7.714,0.081c2.549,0.278,5.066,0.791,7.516,1.544
			c2.454,0.743,4.821,1.776,7.099,2.989c2.278,1.219,4.46,2.644,6.536,4.234c4.151,3.189,7.863,7.033,11.198,11.215
			c6.635,8.428,11.762,18.16,15.923,28.261c2.076,5.061,3.91,10.236,5.525,15.481c0.809,2.622,1.554,5.264,2.249,7.916
			c0.683,2.638,1.336,5.355,1.846,7.939l5.558,28.151l0.492-28.604c0.05-2.911,0.102-5.822,0.045-8.737
			c-0.051-2.914-0.145-5.83-0.332-8.745c-0.069-1.458-0.196-2.914-0.318-4.37c-0.105-1.457-0.27-2.911-0.43-4.366
			c-0.315-2.908-0.737-5.81-1.23-8.701c-0.232-1.447-0.548-2.884-0.818-4.326c-0.314-1.436-0.631-2.871-0.979-4.301
			c-0.73-2.852-1.5-5.697-2.468-8.49c-0.441-1.408-0.999-2.782-1.501-4.171c-0.568-1.368-1.096-2.75-1.728-4.094
			c-1.202-2.71-2.573-5.354-4.103-7.909c-1.528-2.554-3.192-5.039-5.059-7.375c-1.857-2.343-3.885-4.555-6.074-6.599
			c-4.371-4.096-9.391-7.501-14.794-10.048c-5.409-2.541-11.178-4.233-17.039-5.124c-2.933-0.437-5.888-0.69-8.85-0.733
			c-1.48-0.024-2.962,0.003-4.445,0.085c-0.828,0.048-1.636,0.109-2.459,0.194l-0.078-1.61l-0.111-3.607
			c-0.049-2.405-0.058-4.81-0.005-7.214c0.051-2.403,0.162-4.805,0.33-7.201c0.168-2.397,0.415-4.785,0.706-7.169
			c0.326-2.377,0.681-4.752,1.152-7.104c0.438-2.359,1.012-4.688,1.622-7.006c0.651-2.305,1.337-4.604,2.177-6.847
			c0.828-2.247,1.723-4.471,2.761-6.63c2.041-4.332,4.537-8.453,7.499-12.225c2.955-3.774,6.385-7.187,10.213-10.1
			c3.817-2.927,8.028-5.36,12.496-7.207c2.232-0.929,4.531-1.703,6.873-2.327c2.343-0.61,4.731-1.096,7.154-1.288
			c-2.43,0.096-4.844,0.488-7.222,1.008c-2.377,0.534-4.724,1.221-7.015,2.069c-4.584,1.688-8.962,3.977-12.967,6.819
			c-4.003,2.843-7.634,6.224-10.796,9.999c-3.168,3.773-5.877,7.93-8.124,12.318c-1.14,2.187-2.142,4.442-3.051,6.733
			c-0.927,2.285-1.696,4.627-2.429,6.979c-0.691,2.363-1.345,4.74-1.86,7.146c-0.548,2.4-0.978,4.823-1.378,7.25
			c-0.364,2.431-0.683,4.87-0.922,7.316c-0.238,2.446-0.418,4.896-0.536,7.349c-0.121,2.453-0.179,4.907-0.195,7.362
			c-0.017,2.455,0.047,4.907,0.121,7.359l0.061,2.015l2.088-0.285c1.258-0.172,2.699-0.276,4.069-0.32
			c1.387-0.047,2.781-0.043,4.172,0.009c2.784,0.099,5.56,0.397,8.302,0.866c5.48,0.954,10.816,2.649,15.762,5.103
			c4.941,2.462,9.477,5.685,13.412,9.532c1.968,1.923,3.791,3.994,5.476,6.177c1.69,2.18,3.194,4.506,4.579,6.902
			c1.385,2.396,2.628,4.883,3.716,7.443c0.574,1.266,1.05,2.578,1.565,3.871c0.452,1.32,0.96,2.618,1.356,3.959
			c0.875,2.652,1.565,5.37,2.218,8.094c0.31,1.367,0.592,2.743,0.871,4.117c0.237,1.386,0.519,2.761,0.719,4.154
			c0.43,2.78,0.793,5.573,1.054,8.382c0.015,0.158,0.029,0.315,0.044,0.473c-0.943-2.735-1.948-5.452-3.024-8.144
			c-4.233-10.537-9.482-20.806-16.576-30.002c-1.786-2.286-3.69-4.496-5.731-6.595c-2.043-2.095-4.21-4.099-6.564-5.899
			c-2.345-1.809-4.84-3.453-7.475-4.873c-2.635-1.415-5.404-2.63-8.287-3.516c-2.878-0.898-5.846-1.513-8.839-1.846
			c-2.994-0.353-6.012-0.345-8.99-0.126c-2.985,0.202-5.923,0.709-8.797,1.393c-2.891,0.646-5.668,1.606-8.423,2.595l-1.667,0.598
			l-0.464,1.749c-0.352,1.328-0.614,2.495-0.881,3.734c-0.26,1.222-0.5,2.443-0.723,3.664c-0.446,2.443-0.824,4.891-1.15,7.345
			c-0.643,4.907-1.068,9.837-1.273,14.779c-0.41,9.88,0.039,19.816,1.53,29.627c1.475,9.809,3.959,19.498,7.566,28.784
			c3.588,9.292,8.351,18.145,14.13,26.276l1.039,1.462l122.464-0.488l-0.023-2.985C505.418,693.925,504.761,690.406,503.102,687.263
			z"/>
		<path style="fill:#3B2B16;" d="M99.994,333.349c-3.544,37.412,15.453,53.884,26.015,60.066c1.32,0.773,2.774,1.144,4.214,1.144
			c2.501,0,4.96-1.12,6.604-3.204c3.314-4.203,1.926-10.439-2.905-12.744c-7.719-3.684-17.168-12.113-19.456-31.396
			c-4.02-33.887,16.741-57.978,47.401-81.96C161.867,265.255,104.856,282.021,99.994,333.349z"/>
		<path style="fill:#3B2B16;" d="M239.966,163.549c3.683,5.208,3.158,12.493,3.158,12.493c24.036-14.197,1.196-42.216,1.196-42.216
			l-21.362,12.933C228.173,156.178,236.283,158.341,239.966,163.549z"/>
		<path style="fill:#3B2B16;" d="M148.001,442.196c1.571-2.27,3.151-4.522,4.74-6.753l-0.15-0.405
			c-5.053-13.618-0.028-27.117,4.786-35.722c-7.223,8.557-14.758,17.87-22.356,27.68c4.658,5.803,8.448,10.059,11.301,13.06
			C146.956,440.722,147.51,441.442,148.001,442.196z"/>
		<path style="fill:#3B2B16;" d="M143.349,466.606l-2.911,4.999l-2.842,5.041c-1.855,3.383-3.706,6.769-5.467,10.204
			c-0.903,1.706-1.76,3.436-2.625,5.161c-0.875,1.721-1.716,3.459-2.551,5.2c-1.685,3.475-3.297,6.986-4.863,10.519
			c-1.569,3.532-3.069,7.097-4.508,10.689c-1.444,3.59-2.8,7.219-4.085,10.88c-1.277,3.686-2.479,7.312-3.505,11.21l-1.401,5.318
			l4.95-2.576c2.179-1.134,4.374-2.234,6.617-3.221c1.121-0.494,2.242-0.99,3.383-1.431c1.131-0.47,2.28-0.889,3.43-1.304
			c1.144-0.434,2.317-0.777,3.473-1.171c1.172-0.338,2.336-0.713,3.518-1.012c2.354-0.643,4.741-1.144,7.135-1.586
			c9.592-1.69,19.459-1.595,28.998,0.294c4.765,0.961,9.457,2.31,14.001,4.072c3.56,1.369,7.034,2.97,10.41,4.765
			c0.313-1.934,0.603-3.856,0.878-5.768c-3.039-1.526-6.149-2.917-9.336-4.124c-4.837-1.833-9.843-3.235-14.932-4.219
			c-10.188-1.94-20.747-1.958-30.927-0.082c-2.541,0.488-5.069,1.041-7.556,1.74c-1.25,0.327-2.477,0.73-3.713,1.098
			c-1.218,0.424-2.454,0.798-3.656,1.264c-1.209,0.446-2.416,0.897-3.601,1.4c-1.198,0.474-2.37,1.002-3.543,1.53
			c-0.624,0.281-1.234,0.586-1.851,0.881c0.567-1.841,1.174-3.687,1.79-5.505c1.231-3.592,2.535-7.167,3.929-10.711
			c1.39-3.545,2.841-7.069,4.362-10.565c1.518-3.497,3.084-6.976,4.722-10.422c0.812-1.727,1.629-3.451,2.482-5.158
			c0.843-1.712,1.677-3.429,2.557-5.123c1.721-3.408,3.512-6.781,5.313-10.149l2.761-5.021l2.831-4.983
			c0.937-1.665,1.913-3.308,2.89-4.95c0.983-1.638,1.93-3.299,2.945-4.919l3.005-4.883l2.378-3.742l-1.733-4.669
			c-0.306,0.466-0.624,0.925-0.925,1.395l-3.153,4.847l-3.083,4.892c-1.041,1.623-2.014,3.288-3.023,4.931
			C145.314,463.288,144.312,464.935,143.349,466.606z"/>
		<path style="fill:#3B2B16;" d="M138.367,204.184l23.258-12.751l23.177-12.892c0.694-0.41,1.701-0.766,2.623-1.056
			c0.945-0.286,1.909-0.503,2.87-0.63c1.92-0.253,3.827-0.149,5.522,0.419c1.703,0.552,3.188,1.563,4.412,2.928
			c1.213,1.379,2.185,3.063,2.922,4.909l1.004,2.511l2.389-1.145l0.256-0.123l0.165-0.089l0.286-0.171
			c0.178-0.114,0.344-0.23,0.499-0.35c0.313-0.24,0.595-0.496,0.857-0.765c0.518-0.54,0.952-1.132,1.305-1.75
			c0.707-1.241,1.075-2.559,1.263-3.827c0.172-1.269,0.176-2.505,0.062-3.684c-0.058-0.594-0.135-1.161-0.239-1.749l-0.171-0.871
			l-0.177-0.785c-0.067-0.397-0.177-0.777-0.205-1.192c-0.061-0.403-0.074-0.823-0.091-1.243c-0.001-0.424-0.001-0.851,0.035-1.284
			c0.026-0.433,0.076-0.868,0.14-1.307c0.069-0.438,0.139-0.877,0.242-1.316c0.092-0.439,0.207-0.876,0.328-1.311
			c0.126-0.434,0.261-0.867,0.411-1.289c0.139-0.406,0.331-0.88,0.458-1.165l0.626-1.398l-0.807-1.311l-8.873-14.417l-1.118-1.817
			l-2.3,0.527l-0.421,0.096l-0.517,0.1c-0.351,0.063-0.711,0.111-1.071,0.154c-0.722,0.081-1.45,0.121-2.17,0.116
			c-1.44-0.009-2.851-0.193-4.153-0.575c-1.308-0.37-2.503-0.948-3.551-1.719c-0.135-0.094-0.258-0.205-0.385-0.31l6.158-3.495
			l4.768-2.707l2.384-1.353c0.527-0.3,1.009-0.471,1.601-0.595c1.161-0.232,2.576-0.128,4.042,0.233
			c1.469,0.361,2.982,0.959,4.466,1.686c1.484,0.733,2.955,1.585,4.385,2.52c0.715,0.468,1.42,0.958,2.111,1.464
			c0.676,0.495,1.4,1.056,1.968,1.533l1.803,1.514l1.967-1.19l15.869-9.594l3.597-2.175l-3.036-2.832
			c-0.474-0.442-0.821-0.728-1.23-1.07c-0.395-0.322-0.79-0.639-1.19-0.94c-0.796-0.613-1.611-1.184-2.432-1.744
			c-1.649-1.107-3.35-2.123-5.102-3.04c-3.502-1.831-7.18-3.351-11.008-4.379c-3.818-1.047-7.752-1.707-11.711-1.875
			c-3.956-0.182-7.925,0.081-11.807,0.754c-3.878,0.681-7.685,1.725-11.319,3.154c-0.918,0.334-1.832,0.762-2.746,1.14
			c-0.943,0.384-1.771,0.795-2.604,1.212l-1.255,0.624l-0.314,0.156l-0.22,0.112l-0.158,0.089l-0.633,0.354l-2.53,1.421
			c-3.313,1.992-6.48,4.196-9.506,6.564c-3.006,2.393-5.848,4.968-8.564,7.655c-2.697,2.707-5.238,5.553-7.641,8.502
			c-2.387,2.962-4.629,6.026-6.77,9.152c-2.113,3.145-4.109,6.36-6.002,9.629c-1.875,3.279-3.608,6.633-5.258,10.021
			c-1.626,3.4-3.157,6.84-4.591,10.316c-1.423,3.482-2.714,7.013-3.921,10.568c-1.197,3.558-2.299,7.146-3.26,10.77
			c-0.962,3.622-1.818,7.273-2.541,10.941c0.999-3.607,2.123-7.168,3.35-10.693c1.235-3.521,2.511-7.023,3.929-10.468
			c1.41-3.447,2.928-6.845,4.494-10.216c1.593-3.358,3.277-6.669,5.048-9.928c1.783-3.253,3.69-6.431,5.637-9.576
			c1.982-3.124,4.058-6.181,6.237-9.157c2.206-2.955,4.501-5.837,6.919-8.602c2.447-2.738,4.959-5.41,7.614-7.923
			c2.673-2.492,5.448-4.862,8.356-7.043c2.927-2.154,5.964-4.137,9.112-5.908l2.397-1.254l0.599-0.313l0.148-0.077l0.016-0.007
			l0.079-0.037l0.318-0.147l1.273-0.587c0.85-0.394,1.701-0.806,2.5-1.103c0.819-0.318,1.605-0.675,2.449-0.964
			c3.346-1.25,6.805-2.126,10.295-2.676c3.493-0.542,7.029-0.712,10.537-0.489c3.51,0.21,6.983,0.859,10.354,1.847
			c3.371,0.989,6.648,2.323,9.753,3.982c1.554,0.825,3.062,1.738,4.51,2.723c0.212,0.147,0.412,0.304,0.623,0.452l-10.058,5.998
			c-0.166-0.126-0.332-0.252-0.502-0.379c-0.78-0.579-1.573-1.137-2.384-1.675c-1.622-1.076-3.311-2.076-5.115-2.943
			c-1.802-0.867-3.707-1.626-5.794-2.128c-2.077-0.488-4.39-0.74-6.828-0.251c-1.199,0.241-2.452,0.711-3.508,1.329l-2.376,1.367
			l-4.753,2.735l-9.505,5.469l-3.053,1.757l1.997,2.724c0.301,0.411,0.578,0.833,0.906,1.228c0.324,0.397,0.649,0.793,1.013,1.161
			c0.345,0.383,0.735,0.728,1.116,1.079c0.397,0.334,0.794,0.672,1.22,0.97c1.685,1.225,3.597,2.115,5.546,2.653
			c1.953,0.552,3.94,0.743,5.879,0.722c0.972-0.013,1.934-0.086,2.891-0.212c0.232-0.032,0.463-0.077,0.694-0.114l7.245,11.282
			c-0.019,0.057-0.038,0.112-0.058,0.17c-0.182,0.543-0.341,1.088-0.489,1.637c-0.143,0.551-0.276,1.104-0.384,1.667
			c-0.118,0.559-0.201,1.13-0.279,1.702c-0.073,0.574-0.128,1.153-0.154,1.741c-0.035,0.584-0.029,1.181-0.013,1.777
			c0.032,0.6,0.068,1.199,0.166,1.807c0.063,0.604,0.226,1.213,0.356,1.817l0.178,0.704l0.142,0.629
			c0.087,0.415,0.16,0.859,0.214,1.279c0.111,0.85,0.12,1.669,0.044,2.427c-0.024,0.209-0.074,0.398-0.114,0.596
			c-0.578-0.859-1.207-1.694-1.934-2.471c-0.903-0.927-1.9-1.792-3.027-2.493c-1.126-0.697-2.346-1.248-3.607-1.623
			c-2.532-0.761-5.157-0.79-7.599-0.399c-1.226,0.197-2.416,0.502-3.575,0.888c-1.168,0.409-2.26,0.807-3.456,1.549l-22.624,13.838
			l-22.542,13.979l-11.237,7.047l-11.194,7.122l11.707-6.243L138.367,204.184z"/>
		<path style="fill:#3B2B16;" d="M413.918,239.596c-5.366-11.221,2.927-25.369,2.927-25.369
			c-0.568,18.926,4.82,32.161,14.639,37.094c11.347,5.7,26.647-13.699,34.023-24.489c2.821-4.127,4.332-9.006,4.332-14.005v-7.423
			c6.428-4.977,8.758-14.58,9.603-20.888c0.43-3.209-2.017-6.08-5.254-6.161c-50.289-1.246-46.959-23.041-46.959-23.041
			c-6.505-4.879-43.585-10.083-43.585-10.083c0.976,5.53-5.53,17.564-5.53,17.564c-0.325-14.962-7.481-35.128-13.986-42.609
			c-6.505-7.481-14.637-27.647-14.637-27.647c-6.505,12.36-16.914,50.09-11.059,60.499c5.855,10.408,3.903,27.973,3.903,27.973
			s11.167,4.802,9.704,45.783c-1.045,29.253,10.504,42.237,17.201,47.275c-6.349-4.358-17.34-14.006-20.072-29.947
			c-3.903-22.768,0.451-41.959-12.46-55.945c0,0-4.454,10.408-14.862,20.817c-10.409,10.408-18.215,22.118-29.924,42.935
			c-11.71,20.817-18.865,35.779-23.419,48.139c-4.554,12.36-34.478,54.167-53.994,71.97c0,0,30.575,1.543,71.724-19.528
			c-10.335,5.988-21.029,11.343-32.042,15.93c-7.788,3.237-15.73,6.099-23.8,8.506c-4.035,1.201-8.102,2.29-12.198,3.23
			c-4.079,0.929-8.254,1.77-12.311,2.265l-0.609,0.074l-0.388,0.444l-7.604,8.69c-2.47,2.953-4.988,5.866-7.418,8.852
			c-2.415,2.998-4.891,5.949-7.242,8.999l-1.557,1.987c-1.214,3.472-2.079,6.588-2.667,9.44c0.026-0.035,0.051-0.071,0.077-0.105
			c1.143-1.534,2.264-3.085,3.424-4.606l3.494-4.554c2.304-3.057,4.733-6.015,7.103-9.02c2.384-2.994,4.858-5.917,7.282-8.879
			l3.842-4.517l2.366-4.384l-0.616,2.326l1.494-1.756c4.113-0.593,8.046-1.448,12.006-2.405c4.15-1.014,8.257-2.176,12.325-3.449
			c8.136-2.551,16.118-5.555,23.933-8.932c15.625-6.767,30.57-15.031,44.691-24.485c7.057-4.733,13.921-9.752,20.547-15.062
			c2.218-1.758,4.392-3.57,6.552-5.397c15.396-12.578,31.288-28.557,46.915-48.864v0
			C381.642,237.202,413.918,239.596,413.918,239.596z M417.439,167.956c2.234-0.269,4.263,1.324,4.532,3.558
			c0.269,2.234-1.324,4.263-3.558,4.532c-2.234,0.269-4.263-1.324-4.532-3.558C413.612,170.255,415.205,168.225,417.439,167.956z"/>
		<path style="fill:#3B2B16;" d="M241.114,564.18c-10.016,4.554-16.846,5.855-16.846,5.855s3.765,8.998,1.232,23.039
			c-0.821,4.551,22.946-6.64,31.228-13.987l-3.837-25.641C252.891,553.446,251.13,559.626,241.114,564.18z"/>
		<path style="fill:#3B2B16;" d="M216.326,674.723h-76.704c0-10.711,16.076-22.681,33.678-35.908
			c-0.699-0.466-1.316-1.07-1.809-1.809c-2.278-3.414-3.847-11.461,8.77-41.792c5.75-13.823,9.795-28.774,12.633-43.494
			c-43.927-24.801-103.042,11.752-103.042,11.752c8.533-35.271,24.562-68.492,43.418-98.859c-3.522-0.587-6.719-2.414-9.002-5.249
			c-2.044-2.539-4.337-5.564-6.745-9.018c-31.181,43.038-60.058,90.971-68.659,124.837
			c-15.614,61.481,10.444,126.279,10.444,126.279h183.466C242.935,686.742,231.047,674.723,216.326,674.723z"/>
		<path style="fill:#3B2B16;" d="M127.309,456.916c2.105,2.614,5.172,3.976,8.273,4.011c0.041,0,0.081,0.007,0.122,0.007
			c2.481,0,4.977-0.853,7.012-2.603c3.707-3.187,4.681-8.315,2.81-12.529c-0.487-1.097-1.156-2.135-2.033-3.057
			c-2.903-3.054-6.56-7.172-10.923-12.57c-4.953-6.128-10.818-13.91-17.574-23.748c-20.534-29.902-22.349-62.25-22.349-62.25
			c-4.89,46.07,13.332,82.409,27.311,102.827C122.625,450.899,125.14,454.223,127.309,456.916z"/>
		<path style="fill:#3B2B16;" d="M98.479,286.294c-0.017,0.925,0.055,1.847,0.127,2.77l0.2,2.765l0.403,5.519l1.575,10.936
			l-0.582-11.002l0.015-5.496l0.006-2.742c-0.003-0.914-0.007-1.827,0.08-2.738l0.357-5.463c0.062-0.909,0.098-1.82,0.181-2.725
			l0.352-2.708l0.705-5.405l1.068-5.334c0.196-0.883,0.301-1.786,0.56-2.654l0.697-2.619c0.473-1.742,0.879-3.503,1.514-5.191
			l0.872-2.554c0.288-0.852,0.565-1.707,0.937-2.525l1.041-2.48c0.357-0.821,0.662-1.666,1.089-2.453l1.2-2.395l0.591-1.2
			c0.206-0.395,0.44-0.773,0.659-1.161l1.33-2.311c0.436-0.774,0.964-1.485,1.44-2.231c0.485-0.74,0.966-1.482,1.512-2.17
			c0.539-0.691,1.033-1.429,1.606-2.082c0.571-0.652,1.105-1.357,1.706-1.959c0.295-0.305,0.584-0.635,0.881-0.921
			c0.216-0.203,0.461-0.447,0.663-0.632l28.162-15.767l14.202-7.885c4.729-2.63,9.459-5.26,14.21-7.827
			c2.382-1.299,4.726-2.543,7.122-3.805l1.804-0.938c0.567-0.288,1.313-0.701,1.598-0.802c0.764-0.338,1.597-0.459,2.42-0.38
			c0.824,0.066,1.634,0.346,2.318,0.806c0.7,0.441,1.285,1.059,1.65,1.721l0.24,0.448l0.001,0.003l0.031,0.069l0.1,0.22l0.401,0.881
			l0.759,1.779c0.48,1.196,0.936,2.401,1.343,3.619c1.625,4.868,2.645,9.929,2.646,14.947c0.022,5.013-0.958,9.961-3.029,14.459
			c-0.481,1.142-1.115,2.212-1.713,3.301c-0.327,0.529-0.682,1.042-1.02,1.566c-0.326,0.532-0.704,1.031-1.093,1.522
			c-1.47,2.03-3.273,3.825-5.116,5.573c-3.804,3.402-8.207,6.212-12.863,8.597c-1.163,0.601-2.328,1.203-3.542,1.717
			c-1.204,0.526-2.395,1.111-3.618,1.559c-1.228,0.47-2.407,0.973-3.677,1.42l-3.848,1.315l-3.881,1.329
			c-1.31,0.457-2.592,0.995-3.887,1.488c-1.29,0.509-2.548,1.098-3.819,1.649c-1.262,0.573-2.49,1.22-3.734,1.827
			c-4.929,2.53-9.622,5.492-14.034,8.802c-4.417,3.304-8.531,6.99-12.313,10.966c-1.907,1.973-3.703,4.047-5.441,6.161
			c-1.719,2.131-3.347,4.33-4.897,6.577c-1.548,2.249-3.009,4.555-4.336,6.934c-1.329,2.376-2.585,4.795-3.628,7.302
			c2.558-4.786,5.735-9.19,9.075-13.412c3.376-4.201,7.059-8.133,10.982-11.782c3.91-3.667,8.163-6.931,12.557-9.94
			c4.411-2.989,9.055-5.613,13.886-7.805c2.42-1.087,4.872-2.092,7.353-3.014c1.254-0.427,2.49-0.898,3.754-1.29l3.856-1.171
			l3.891-1.181c1.302-0.407,2.64-0.914,3.96-1.369c1.34-0.442,2.607-1.007,3.905-1.523c1.301-0.5,2.568-1.098,3.835-1.697
			c5.061-2.4,9.926-5.387,14.297-9.12c2.131-1.928,4.225-3.939,5.997-6.265c0.463-0.563,0.913-1.136,1.314-1.751
			c0.412-0.605,0.838-1.201,1.234-1.817c0.741-1.267,1.508-2.522,2.115-3.867c2.618-5.296,3.759-11.253,3.785-17.064
			c0.033-5.839-1.097-11.553-2.86-16.966c-0.443-1.355-0.936-2.69-1.457-4.013l-0.823-1.966l-0.435-0.972l-0.109-0.243l-0.055-0.121
			l-0.132-0.265l-0.237-0.45c-1.847-3.44-5.366-5.66-9.141-5.945c-1.876-0.163-3.803,0.149-5.518,0.911
			c-0.967,0.423-1.391,0.7-2.033,1.025l-1.797,0.95c-2.391,1.28-4.827,2.595-7.195,3.908c-4.77,2.621-9.496,5.293-14.224,7.965
			c-4.723,2.677-9.402,5.429-14.089,8.164l-14.03,8.252c-4.679,2.747-9.314,5.563-13.958,8.376l-0.254,0.154l-0.124,0.116
			c-0.856,0.799-1.463,1.476-2.119,2.233c-0.67,0.727-1.225,1.508-1.835,2.262c-0.611,0.752-1.118,1.562-1.68,2.34
			c-0.568,0.775-1.06,1.591-1.556,2.406c-0.485,0.819-1.024,1.609-1.463,2.451l-1.333,2.514c-0.218,0.421-0.452,0.834-0.656,1.26
			l-0.581,1.294l-1.144,2.593c-0.407,0.853-0.688,1.755-1.021,2.635l-0.964,2.653c-0.345,0.876-0.593,1.782-0.851,2.685
			l-0.779,2.704c-0.572,1.788-0.907,3.632-1.309,5.457l-0.587,2.74c-0.22,0.908-0.293,1.843-0.439,2.763l-0.756,5.536l-0.38,5.563
			l-0.186,2.776c-0.028,0.926-0.008,1.855-0.014,2.781L98.479,286.294z"/>
		<path style="fill:#3B2B16;" d="M336.709,658.506l6.753-153.524c-7.036,7.775-17.845,11.74-17.845,11.74
			c-9.27-14.148-12.685-31.711-12.685-31.711v171.73c39.517,14.636,34.151,44.396,34.151,44.396h27.169
			C372.638,668.937,336.709,658.506,336.709,658.506z"/>
		<path style="fill:#3B2B16;" d="M337.638,683.779c-2.443-4.305-5.734-7.955-9.344-11.049c-3.621-3.099-7.585-5.666-11.696-7.868
			c-2.059-1.1-4.159-2.104-6.299-3.022c-1.07-0.459-2.15-0.894-3.243-1.308c-0.374-0.14-0.742-0.275-1.111-0.407l0.184-79.039
			l0.047-40.667l0.008-10.167l0.002-2.542l-0.003-0.419l-0.01-0.317l-0.02-0.634l-0.04-1.267l-0.147-5.067
			c-0.178-6.754-0.283-13.499-0.238-20.232c0.022-3.379,0.083-6.71,0.191-10.092c0.106-3.386,0.217-6.746,0.41-10.081
			c0.385-6.663,1.096-13.262,2.728-19.546c1.623-6.272,4.226-12.208,8.283-17.033c4.075-4.95,9.289-9.128,14.393-13.773
			c2.55-2.334,5.07-4.77,7.362-7.558c2.306-2.792,4.205-5.732,5.953-8.801c3.444-6.148,5.974-12.761,7.632-19.557
			c0.214-0.849,0.392-1.704,0.587-2.557c0.166-0.861,0.362-1.761,0.502-2.589l0.217-1.252l0.207-1.299l0.379-2.547
			c0.431-3.009,0.778-6.03,1.064-9.058c0.849,5.842,1.508,11.724,2.024,17.607c0.137,1.633,0.265,3.267,0.37,4.897l0.076,1.214
			l0.018,0.303l0.006,0.119l-0.001,0.04l-0.02,0.601l-0.079,2.402c-0.191,3.193-0.573,6.365-1.222,9.474
			c-0.648,3.108-1.567,6.149-2.774,9.072c-1.207,2.924-2.708,5.725-4.447,8.392c-1.737,2.67-3.71,5.207-5.815,7.672
			c-2.103,2.468-4.352,4.861-6.586,7.326c-2.238,2.458-4.465,5.013-6.476,7.8c-0.991,1.405-1.949,2.851-2.772,4.394
			c-0.428,0.746-0.812,1.573-1.194,2.393c-0.381,0.844-0.618,1.476-0.969,2.394c-1.15,3.259-1.951,6.633-2.356,10.041
			c-0.43,3.406-0.495,6.839-0.286,10.238c0.205,3.401,0.709,6.77,1.436,10.083c0.753,3.329,1.669,6.529,3.004,9.791l1.008,2.463
			l1.839-1.957c6.754-7.184,13.48-14.502,19.463-22.457c5.997-7.931,11.252-16.489,15.269-25.62
			c2.011-4.561,3.739-9.249,5.111-14.037c1.383-4.785,2.454-9.652,3.254-14.558c0.793-4.828,1.226-9.7,1.497-14.572l0.047,0.163
			c0.043,0.13-0.011-0.003,0.113,0.343l0.058,0.148l0.234,0.594c0.09,0.219,0.259,0.563,0.391,0.835l0.216,0.431l0.219,0.368
			c0.15,0.243,0.289,0.492,0.452,0.726c0.328,0.466,0.662,0.929,1.044,1.352c1.489,1.721,3.409,3.061,5.533,3.865
			c1.06,0.404,2.171,0.69,3.301,0.811c0.562,0.085,1.132,0.083,1.698,0.102l0.848-0.037l0.645-0.041
			c0.909-0.071,1.519-0.092,2.276-0.092c0.744-0.003,1.477,0.033,2.192,0.099c2.871,0.26,5.441,1.147,7.094,2.762
			c0.848,0.793,1.506,1.774,2.009,2.915l0.348,0.881l0.3,1.06c0.138,0.44,0.157,0.691,0.224,1.005
			c0.06,0.301,0.131,0.596,0.159,0.952c0.203,1.354,0.19,2.732,0.037,4.113c-0.148,1.382-0.448,2.772-0.9,4.149
			c-0.868,2.76-2.238,5.467-3.796,8.087c-3.141,5.253-7.033,10.162-10.733,15.087c-3.736,4.909-7.422,9.78-10.768,14.727
			c-3.351,4.941-6.362,9.965-8.86,15.048c-1.234,2.55-2.345,5.108-3.339,7.657c-0.981,2.556-1.817,5.111-2.549,7.636
			c-1.399,5.071-2.339,10.041-2.738,14.805c-0.404,4.763-0.377,9.296-0.069,13.519c0.598,8.459,2.343,15.641,4.076,21.401
			c1.731,5.773,3.56,10.134,4.801,13.095c1.308,2.925,2.006,4.486,2.009,4.494l0,0.001v0v0c0-0.002-0.143-1.709-0.192-4.911
			c-0.063-3.203,0.016-7.905,0.408-13.853c0.423-5.944,1.246-13.145,2.935-21.229c0.849-4.039,1.917-8.299,3.352-12.68
			c1.427-4.38,3.129-8.912,5.298-13.442c4.3-9.054,10.496-18.167,19.044-25.618c1.102-0.992,2.21-1.991,3.326-2.996
			c0.553-0.508,1.112-0.973,1.665-1.522c0.553-0.554,1.108-1.11,1.664-1.667c0.556-0.559,1.114-1.12,1.673-1.682
			c0.553-0.567,1.052-1.167,1.583-1.751c1.042-1.184,2.129-2.34,3.092-3.619c4.032-4.958,7.553-10.563,10.293-16.7
			c2.725-6.133,4.691-12.837,5.17-19.891c0.181-1.755,0.137-3.537,0.128-5.322c-0.011-0.892-0.127-1.788-0.189-2.684l-0.115-1.345
			l-0.216-1.341c-0.511-3.586-1.609-7.142-3.186-10.51c-1.586-3.357-3.66-6.584-6.365-9.276c-2.672-2.712-5.843-4.954-9.289-6.598
			c-3.446-1.678-7.184-2.564-10.896-3.061l-2.799-0.273l-2.79-0.02c-0.464,0.004-0.932-0.016-1.393,0.009l-1.379,0.111
			c-0.919,0.079-1.841,0.144-2.756,0.239l-2.706,0.46l-1.352,0.235c-0.142,0.03,0.078-0.026-0.36,0.076l-0.155,0.042l-0.309,0.084
			l-0.619,0.168c-0.575,0.201-1.239,0.439-1.782,0.694c-0.506,0.273-1.039,0.504-1.512,0.836c-0.482,0.317-0.965,0.632-1.396,1.014
			c-0.22,0.185-0.444,0.367-0.657,0.559l-0.604,0.615c-1.357,1.395-2.373,3.089-3.019,4.916c-0.02-2.077-0.068-4.154-0.145-6.228
			c-0.27-4.933-0.646-9.907-1.289-14.788l-1.842-14.657c-0.278-2.443-0.492-4.893-0.742-7.34c-0.241-2.448-0.503-4.894-0.649-7.349
			l-0.524-7.36l-0.335-7.371c-0.137-2.457-0.165-4.916-0.211-7.376c-0.054-2.46-0.102-4.92-0.055-7.38
			c0.01-4.92,0.161-9.841,0.45-14.754c0.147-2.456,0.299-4.913,0.546-7.362c0.194-2.454,0.498-4.897,0.786-7.342
			c0.662-4.875,1.399-9.757,2.663-14.521c-1.348,4.742-2.171,9.616-2.92,14.486c-0.331,2.443-0.678,4.884-0.915,7.339
			c-0.29,2.449-0.485,4.907-0.676,7.366c-0.375,4.917-0.613,9.846-0.71,14.778c-0.09,2.466-0.086,4.932-0.074,7.399
			c0.005,2.467-0.017,4.935,0.087,7.4l0.239,7.397l0.43,7.389c0.115,2.466,0.346,4.922,0.555,7.38
			c0.218,2.457,0.401,4.919,0.648,7.374l1.647,14.696c0.573,4.898,0.866,9.762,1.064,14.669c0.11,4.898,0.102,9.8-0.221,14.682
			c-0.338,4.878-0.837,9.747-1.699,14.554c-0.856,4.806-1.975,9.561-3.396,14.222c-1.411,4.665-3.166,9.22-5.194,13.644
			c-4.052,8.858-9.298,17.132-15.293,24.826c-5.426,6.974-11.419,13.507-17.563,19.943c-0.715-2.155-1.312-4.412-1.786-6.642
			c-0.656-3.148-1.098-6.34-1.257-9.537c-0.163-3.196-0.067-6.399,0.365-9.546c0.407-3.151,1.179-6.236,2.257-9.197
			c0.245-0.621,0.602-1.533,0.915-2.188c0.329-0.671,0.642-1.343,1.045-2.026c0.745-1.367,1.63-2.672,2.555-3.956
			c1.884-2.554,4.027-4.971,6.263-7.374c2.229-2.408,4.533-4.807,6.744-7.347c2.212-2.536,4.335-5.203,6.232-8.053
			c1.899-2.847,3.567-5.878,4.915-9.051c1.353-3.17,2.38-6.476,3.104-9.831c0.728-3.356,1.162-6.756,1.39-10.157l0.103-2.55
			l0.026-0.638l0.003-0.08l-0.004-0.225l-0.007-0.155l-0.016-0.315l-0.069-1.259c-0.095-1.668-0.212-3.329-0.339-4.99
			c-0.516-6.639-1.236-13.258-2.189-19.859c-0.495-3.298-1.009-6.596-1.651-9.88c-0.608-3.288-1.348-6.56-2.139-9.825l-5.384-22.208
			l0.524,22.889c0.152,6.667-0.115,13.353-0.76,20.006c-0.319,3.327-0.728,6.647-1.227,9.954l-0.389,2.478l-0.202,1.209
			l-0.226,1.251c-0.149,0.841-0.324,1.595-0.484,2.397c-0.19,0.797-0.362,1.6-0.569,2.393c-1.602,6.359-4.012,12.5-7.238,18.159
			c-1.624,2.807-3.446,5.565-5.481,7.98c-2.031,2.437-4.396,4.727-6.856,6.952c-4.918,4.455-10.395,8.758-14.997,14.271
			l-0.434,0.511l-0.429,0.548c-0.265,0.349-0.51,0.635-0.79,1.037l-0.82,1.149l-0.746,1.139c-0.97,1.533-1.844,3.118-2.628,4.739
			c-1.546,3.25-2.741,6.629-3.638,10.047c-1.807,6.843-2.566,13.795-2.997,20.649c-0.215,3.43-0.342,6.845-0.464,10.233
			c-0.125,3.391-0.204,6.837-0.241,10.236c-0.077,6.822-0.001,13.633,0.147,20.431l0.124,5.096l0.06,2.445l-0.013,2.542
			l-0.055,10.167l-0.204,40.666l-0.313,81.333l-0.009,2.354l2.287,0.707c0.903,0.279,1.966,0.657,2.948,1.029
			c1,0.38,1.996,0.782,2.982,1.208c1.973,0.85,3.913,1.781,5.802,2.794c3.773,2.027,7.361,4.37,10.54,7.101
			c3.174,2.727,5.944,5.851,7.919,9.349c1.421,2.502,2.392,5.196,2.882,7.98l-48.561-0.016c-0.817-7.573-1.707-15.105-2.642-22.645
			c-1.052-8.504-2.195-16.995-3.365-25.483l-1.822-12.722c-0.622-4.239-1.247-8.477-1.911-12.71
			c-0.642-4.236-1.313-8.467-2.004-12.696c-0.67-4.232-1.383-8.457-2.103-12.681c-0.7-4.227-1.456-8.446-2.208-12.665
			c-0.734-4.222-1.53-8.434-2.321-12.647l-2.373-12.609c-0.77-4.197-1.542-8.378-2.269-12.584c-0.742-4.2-1.447-8.405-2.133-12.613
			c-0.688-4.207-1.361-8.417-1.989-12.631c-0.639-4.213-1.237-8.431-1.801-12.65c-0.559-4.208-1.094-8.463-1.52-12.623
			l-2.623-25.643l-3.393,25.517l-5.189,39.031l-0.638,4.783l-0.202,1.214l-0.225,0.939c-0.186,0.662-0.4,1.343-0.661,1.991
			c-1.041,2.611-2.724,4.965-4.861,6.796c-1.068,0.917-2.246,1.704-3.502,2.341l-0.958,0.445l-1.122,0.48l-2.265,0.963l-7.236,3.077
			c-0.443-0.454-0.884-0.892-1.341-1.341c-0.93-0.908-1.877-1.79-2.839-2.653c-1.924-1.725-3.908-3.374-5.947-4.95
			c-0.135-0.105-0.276-0.203-0.411-0.307c-0.187,2.241-0.409,4.466-0.653,6.681c1.093,0.907,2.172,1.829,3.222,2.78
			c0.904,0.818,1.791,1.652,2.654,2.503c0.848,0.837,1.735,1.746,2.454,2.555l1.371,1.543l1.884-0.791l9.076-3.81l2.269-0.953
			l1.143-0.483l1.276-0.586c1.675-0.838,3.249-1.878,4.677-3.092c2.858-2.424,5.115-5.549,6.52-9.028
			c0.355-0.873,0.641-1.755,0.899-2.673l0.343-1.455l0.208-1.213l0.689-4.971l2.222-16.147c0.126,0.877,0.246,1.756,0.374,2.633
			c0.616,4.248,1.267,8.488,1.949,12.723c0.683,4.235,1.386,8.466,2.126,12.689c0.723,4.223,1.497,8.454,2.265,12.671l2.353,12.61
			c0.78,4.194,1.566,8.388,2.291,12.593c0.742,4.202,1.488,8.403,2.179,12.615c0.71,4.208,1.414,8.417,2.075,12.634
			c0.682,4.213,1.343,8.43,1.977,12.651c0.654,4.218,1.271,8.442,1.885,12.667l1.796,12.68c1.153,8.46,2.28,16.923,3.315,25.397
			c1.037,8.467,2.039,16.964,2.911,25.417l0.301,2.917l2.924-0.001l55.04-0.019l3.331-0.001l-0.11-3.336
			C341.561,693.037,340.09,688.064,337.638,683.779z"/>
		<path style="fill:#3B2B16;" d="M177.554,502.698c0.887,3.682,4,5.599,7.123,5.599c2.771,0,5.551-1.509,6.792-4.632
			c2.836-7.137,5.022-16.741,4.409-28.906c-1.526-30.272-6.22-43.512-2.098-59.067c0,0-7.842,14.527-6.895,27.959
			c0.876,12.424,2.218,41.344-7.721,52.421C177.557,497.863,176.991,500.359,177.554,502.698z"/>
		<path style="fill:#3B2B16;" d="M196.166,618.221c-0.398,1.212-0.878,2.441-1.421,3.665c19.381-16.85,32.548-35.457,15.509-55.82
			c-3.416,21.299-8.885,37.087-12.3,46.922C197.265,614.973,196.67,616.687,196.166,618.221z"/>
		<path style="fill:#3B2B16;" d="M209.167,138.784c-2.234,0.269-3.827,2.298-3.558,4.532c0.269,2.234,2.298,3.827,4.532,3.558
			c2.234-0.269,3.827-2.298,3.558-4.532C213.43,140.108,211.401,138.515,209.167,138.784z"/>
		<path style="fill:#3B2B16;" d="M238.895,174.804c0,0,1.065-6.542-5.564-10.521c-6.629-3.979-11.023-10.877-11.023-10.877
			s-5.614,7.096-6.578,11.251c0,0-2.378,4.759,0.159,11.881c2.536,7.122-2.298,10.699-3.764,11.774
			C212.126,188.312,235.902,187.576,238.895,174.804z"/>
		<path style="fill:#3B2B16;" d="M198.155,544.705c-0.51,3.051-1.067,6.122-1.68,9.205c-2.875,14.463-6.927,29.14-12.61,42.804
			c-12.247,29.444-11.54,39.264-7.023,39.264c0.081,0,0.166-0.01,0.249-0.016c2.358-0.177,5.65-2.828,8.689-6.685
			c2.711-3.439,5.219-7.831,6.678-12.274c3.268-9.949,10.505-27.919,14.417-54.591c0.514-3.502,0.971-7.152,1.354-10.957
			c0.214-2.128,0.403-4.308,0.567-6.531c1.68-22.64,0.667-50.223-6.1-83.05c0,0,2.508,35.751-3.617,76.964
			C198.791,540.783,198.484,542.74,198.155,544.705z"/>
		<path style="fill:#3B2B16;" d="M206.492,237.184c-0.431,0.716-0.894,1.486-1.388,2.308c-0.243,0.411-0.494,0.836-0.752,1.272
			c-0.293,0.414-0.595,0.84-0.905,1.278c-0.621,0.87-1.276,1.787-1.963,2.748c-0.727,0.927-1.566,1.836-2.392,2.814
			c-0.799,1.003-1.794,1.898-2.772,2.868c-0.498,0.477-0.981,0.985-1.514,1.459c-0.551,0.454-1.112,0.916-1.681,1.386
			c-4.549,3.769-10.355,7.112-16.816,10.761c-3.233,1.836-6.616,3.761-10.053,5.91c-1.711,1.088-3.466,2.171-5.168,3.403
			c-1.718,1.208-3.481,2.395-5.193,3.766c-1.722,1.336-3.53,2.674-5.14,4.106c-0.83,0.707-1.666,1.419-2.506,2.134l-0.631,0.538
			l-0.316,0.269l-0.158,0.135l-0.204,0.193l-1.243,1.192c-0.831,0.799-1.667,1.602-2.507,2.409
			c-0.822,0.827-1.573,1.734-2.369,2.605c-1.625,1.715-3.033,3.653-4.513,5.558c-2.79,3.936-5.372,8.162-7.368,12.761
			c-0.955,2.312-1.897,4.656-2.599,7.096c-0.176,0.609-0.391,1.208-0.533,1.828l-0.437,1.859l-0.431,1.865l-0.32,1.891
			c-0.855,5.049-1.097,10.239-0.729,15.409c0.093,1.287,0.254,2.666,0.411,3.928l0.281,1.83l0.07,0.458
			c0.029,0.181,0.028,0.137,0.044,0.216l0.036,0.151l0.073,0.302c0.101,0.402,0.197,0.804,0.315,1.202
			c0.552,1.581,1.408,3.067,2.528,4.337c1.155,1.234,2.536,2.234,4.058,2.93c3.048,1.347,6.679,1.458,9.791,0.091
			c0.388-0.182,0.76-0.331,1.154-0.554c0.403-0.248,0.802-0.508,1.192-0.777l0.29-0.203c0.081-0.062,0.123-0.104,0.187-0.157
			l0.35-0.303l0.35-0.303l0.088-0.076c-0.118,0.109,0.257-0.23,0.26-0.24l0.215-0.228c1.155-1.208,2.05-2.665,2.619-4.23
			c0.572-1.566,0.814-3.246,0.717-4.905c-0.027-0.415-0.067-0.828-0.139-1.237c-0.046-0.374-0.188-0.927-0.284-1.305l-0.558-1.803
			l-0.522-1.663l-0.433-1.677c-0.316-1.113-0.507-2.242-0.736-3.364c-0.212-1.123-0.344-2.252-0.489-3.376
			c-0.079-1.126-0.212-2.251-0.213-3.371c-0.111-2.244,0.059-4.469,0.332-6.661c0.29-2.194,0.824-4.332,1.455-6.428
			c0.698-2.076,1.514-4.105,2.502-6.047c4.001-7.761,10.011-14.218,16.33-19.567c3.166-2.688,6.437-5.104,9.663-7.374
			c1.617-1.134,3.229-2.216,4.815-3.257c0.812-0.521,1.616-1.037,2.412-1.548c0.798-0.551,1.588-1.098,2.37-1.638
			c6.306-4.31,11.225-9.423,14.784-14.443c3.595-5.015,5.821-9.937,7.251-14.068c1.443-4.141,2.027-7.54,2.342-9.843
			c0.301-2.312,0.294-3.553,0.294-3.553s-0.116,1.238-0.639,3.491c-0.518,2.251-1.487,5.511-3.195,9.436
			c-1.72,3.914-4.291,8.463-8.021,13.034c-3.734,4.561-8.712,9.055-14.85,12.833c-0.77,0.475-1.549,0.955-2.335,1.439
			c-0.823,0.469-1.655,0.942-2.494,1.42c-1.697,0.988-3.408,2.009-5.126,3.083c-3.439,2.151-6.896,4.56-10.327,7.235
			c-3.431,2.674-6.798,5.676-9.957,9.075c-0.806,0.832-1.544,1.746-2.323,2.626c-0.726,0.931-1.492,1.835-2.173,2.822
			c-1.431,1.916-2.696,3.998-3.884,6.149c-1.166,2.168-2.158,4.461-3.011,6.831c-0.788,2.392-1.458,4.855-1.855,7.388
			c-0.816,5.057-0.748,10.315,0.161,15.398c0.245,1.266,0.459,2.545,0.797,3.788l0.471,1.878l0.563,1.848l0.516,1.716
			c0.039,0.219,0.064,0.26,0.092,0.496c0.035,0.196,0.049,0.395,0.062,0.593c0.038,0.795-0.083,1.599-0.364,2.345
			c-0.28,0.745-0.708,1.433-1.264,2.002l-0.065,0.07l-0.035,0.03l-0.352,0.3l-0.352,0.3c-0.055,0.045-0.125,0.111-0.169,0.139
			l-0.1,0.045c-0.131,0.063-0.253,0.135-0.37,0.219c-0.142,0.08-0.352,0.151-0.52,0.235c-1.429,0.627-3.15,0.556-4.616-0.094
			c-0.722-0.344-1.378-0.803-1.929-1.366c-0.513-0.595-0.912-1.271-1.197-2.019l-0.15-0.591l-0.041-0.147l-0.021-0.073
			c-0.001,0.004-0.027-0.113-0.009-0.009l-0.074-0.457l-0.295-1.828c-0.153-1.185-0.285-2.257-0.381-3.425
			c-0.366-4.654-0.184-9.337,0.552-13.893c0.744-4.555,2.012-8.981,3.698-13.194c1.71-4.21,3.981-8.121,6.459-11.805
			c1.328-1.784,2.578-3.608,4.057-5.236c0.722-0.826,1.396-1.688,2.146-2.477c0.757-0.785,1.51-1.566,2.26-2.342l1.121-1.164
			l0.07-0.073c0.001-0.004,0.096-0.094,0.021-0.028l0.153-0.141l0.306-0.281l0.61-0.561c0.812-0.747,1.619-1.491,2.422-2.229
			c1.595-1.53,3.213-2.811,4.8-4.144c6.417-5.279,13.051-9.686,19.297-13.662c3.125-2.009,6.155-3.914,8.944-5.923
			c1.388-1.014,2.755-1.974,4.002-3.042c0.632-0.517,1.255-1.027,1.869-1.529c0.602-0.516,1.156-1.077,1.721-1.6
			c0.559-0.529,1.109-1.05,1.65-1.562c0.522-0.531,0.993-1.097,1.477-1.628c0.956-1.075,1.908-2.081,2.649-3.192
			c0.773-1.082,1.555-2.086,2.221-3.099c0.621-1.04,1.213-2.032,1.775-2.974c0.278-0.47,0.549-0.928,0.811-1.373
			c0.226-0.465,0.445-0.916,0.658-1.354c0.417-0.877,0.809-1.699,1.173-2.464c0.773-1.505,1.201-2.887,1.639-3.963
			c0.83-2.169,1.273-3.325,1.273-3.325s-0.555,1.106-1.595,3.181C207.959,234.455,207.405,235.773,206.492,237.184z"/>
		<path style="fill:#3B2B16;" d="M174.641,419.876c1.149-5.445,3.227-11.77,6.668-19.484c0,0-15.808,13.872-17.546,33.392
			c-0.038,0.422-0.069,0.828-0.101,1.239c-0.218,2.731-0.335,5.211-0.393,7.477c-0.157,6.131,0.102,10.726-0.135,14.656
			c-0.636,10.543,2.378,20.98,8.671,29.464c0,0,9.454-13.041,6.278-30.163c-1.933-10.421-5.227-17.906-4.523-28.875
			C173.712,425.201,174.055,422.653,174.641,419.876z"/>
		<path style="fill:#3B2B16;" d="M181.287,395.218l7.975-6.999c30.255-36.667,57.161-65.161,64.864-82.706
			c17.566-40.011,48.205-88.714,66.42-106.278c18.215-17.564,11.71-35.779,11.71-35.779c-2.602,8.457-4.554,9.107-9.758,18.215
			c-5.204,9.107-47.163,48.789-63.426,89.122c-12.855,31.88-19.822,43.443-45.547,69.697
			C205.964,360.879,194.692,380.059,181.287,395.218z"/>
		<path style="fill:#3B2B16;" d="M195.298,272.754c0,0,11.974,52.955-17.53,103.524c-3.209,5.5-6.9,10.971-11.159,16.343
			c0,0-16.632,19.34-11.056,38.906c0.204,0.717,0.431,1.435,0.697,2.151c0,0,0.068-1.41,0.478-3.776
			c1.11-6.412,4.748-19.9,16.492-31.769c13.361-13.503,24.967-31.142,33.295-50.582c14.41-33.636,18.997-72.666,5.815-105.01
			C212.329,242.542,207.143,263.162,195.298,272.754z"/>
		<path style="fill:#3B2B16;" d="M537.165,642.082c32.894,28.965,64.295,22.252,64.295,22.252l2.738,8.028h14.005
			c-16.37-20.552,1.462-39.23,1.462-39.23C577.1,612.46,537.165,642.082,537.165,642.082z"/>
		<path style="fill:#3B2B16;" d="M738.599,652.182c-0.038-0.521-0.124-1.039-0.184-1.557c-0.516-4.156-1.962-8.144-3.932-11.769
			c-1.002-1.81-2.155-3.521-3.39-5.162c-1.267-1.616-2.617-3.158-4.051-4.612c-2.888-2.889-6.062-5.458-9.426-7.722
			c-3.372-2.261-6.878-4.275-10.615-5.916l-0.1-0.044l-0.103,0.002l-24.429,0.513l24.303,0.51c3.539,1.697,6.941,3.788,10.141,6.086
			c3.228,2.322,6.244,4.926,8.947,7.806c1.341,1.449,2.592,2.972,3.755,4.554c1.129,1.605,2.173,3.264,3.064,4.998
			c1.748,3.476,2.969,7.216,3.321,11.056c0.04,0.48,0.106,0.957,0.126,1.437l0.03,1.443c0.002,0.225,0.017,0.515,0.01,0.687
			l-0.034,0.752l-0.068,1.504c-0.192,1.88-0.412,3.816-0.892,5.69c-0.184,0.948-0.51,1.861-0.76,2.791
			c-0.339,0.903-0.607,1.83-1.008,2.707c-0.707,1.792-1.631,3.488-2.611,5.139c-3.988,6.602-10.05,11.809-16.88,15.397
			c-6.871,3.569-14.533,5.563-22.263,6.055c-1.956,0.115-3.825,0.138-5.855,0.108l-6.024-0.049l-12.047-0.098l-48.188-0.386
			l-24.094-0.118l-12.047-0.059l-6.024-0.03l-3.012-0.015l-1.392-0.007l-1.505-0.064l-3.009-0.129
			c-0.947-0.094-1.853-0.223-2.781-0.329c-1.834-0.148-3.727-0.634-5.594-0.968c-3.697-0.923-7.37-2.017-10.827-3.635
			c-7.005-3.027-13.319-7.542-18.639-12.986c-5.312-5.47-9.445-12.017-12.343-19.063l-2.241-5.591l-0.56-1.398l-0.612-1.454
			c-0.198-0.464-0.481-1.027-0.721-1.533c-0.254-0.509-0.518-0.98-0.778-1.471c-2.154-3.855-5.031-7.292-8.401-10.121
			c-1.685-1.415-3.495-2.68-5.399-3.778c-0.856-0.508-1.77-1.008-2.58-1.504c-0.802-0.49-1.605-0.979-2.407-1.519
			c-0.524-0.344-1.035-0.704-1.549-1.061c0.658-2.501,1.391-4.977,2.236-7.409c0.647-1.876,1.364-3.722,2.18-5.513
			c0.083-0.196,0.178-0.383,0.266-0.576c0.123-0.269,0.264-0.532,0.393-0.797c0.286-0.566,0.53-1.017,0.713-1.338
			c0.843,0.092,1.687,0.178,2.534,0.251c1.298,0.131,2.622,0.219,3.925,0.304l7.903,1.155l8.014,1.171l8.02,1.128l0.429,0.06
			l1.448,0.51c0.738,0.291,1.452,0.626,2.182,0.934c0.722,0.321,1.395,0.726,2.097,1.081c1.359,0.782,2.683,1.627,3.906,2.612
			c0.642,0.452,1.218,0.991,1.799,1.524l0.878,0.793c0.282,0.276,0.544,0.577,0.818,0.864c0.32,0.319,0.625,0.653,0.924,0.994
			c-0.014,0.008-0.027,0.015-0.041,0.023c-1.064,0.611-2.123,1.231-3.176,1.862c-2.105,1.265-4.188,2.577-6.248,3.948
			c-1.022,0.708-2.052,1.392-3.059,2.143c-1.017,0.72-2.011,1.517-3.007,2.304l-1.471,1.266c-0.489,0.426-0.965,0.924-1.445,1.385
			c-0.482,0.438-0.942,1.059-1.406,1.586c-0.232,0.248-0.457,0.604-0.677,0.953l-0.643,1.048l-0.924,1.508l1.225,1.539
			c0.304,0.382,0.566,0.675,0.838,0.989c0.27,0.319,0.545,0.612,0.82,0.906c0.545,0.598,1.101,1.18,1.672,1.734
			c1.114,1.151,2.309,2.194,3.474,3.275c1.222,1.008,2.402,2.071,3.665,3.023c1.273,0.938,2.487,1.958,3.816,2.815l1.964,1.326
			l0.982,0.662l1.017,0.607c1.365,0.793,2.693,1.65,4.089,2.386l4.207,2.167c1.432,0.66,2.888,1.268,4.331,1.903
			c1.428,0.672,2.936,1.145,4.417,1.682c1.492,0.506,2.952,1.109,4.487,1.476l4.556,1.244c1.523,0.393,3.084,0.622,4.623,0.939
			c1.546,0.283,3.081,0.644,4.65,0.763l4.683,0.516c1.557,0.23,3.131,0.167,4.697,0.243l2.838,0.079l1.402,5.88l0.424,1.779
			l1.785-0.02l37.823-0.424l18.911-0.222l4.728-0.075l2.414-0.038l2.362-0.116c3.361-0.27,6.523-0.959,9.622-2.039
			c6.163-2.155,11.733-5.865,16.089-10.655c2.178-2.382,4.06-5.078,5.566-7.879c1.536-2.885,2.676-5.879,3.487-8.993
			c0.801-3.106,1.243-6.306,1.247-9.513c0.004-3.201-0.431-6.423-1.466-9.456c-0.523-1.513-1.151-2.986-1.924-4.384
			c-0.802-1.382-1.67-2.696-2.569-3.999c-1.819-2.577-3.738-5.12-6.073-7.248c2.241,2.223,4.04,4.831,5.74,7.469
			c0.836,1.328,1.65,2.683,2.373,4.06c0.695,1.392,1.245,2.852,1.69,4.338c0.875,2.983,1.162,6.109,1.074,9.201
			c-0.102,3.097-0.626,6.175-1.493,9.145c-0.865,2.96-2.086,5.858-3.596,8.494c-1.566,2.702-3.405,5.153-5.549,7.361
			c-4.269,4.408-9.627,7.723-15.432,9.549c-2.882,0.914-5.953,1.462-8.884,1.607l-2.364,0.042l-2.314-0.038l-4.728-0.074
			l-18.911-0.223l-35.999-0.404l-1.311-5.927l-0.381-1.723l-1.9-0.086l-4.474-0.202c-1.488-0.097-2.988-0.054-4.461-0.302
			l-4.434-0.563c-1.486-0.133-2.932-0.504-4.39-0.796c-1.451-0.325-2.924-0.56-4.356-0.957l-4.28-1.246
			c-1.443-0.364-2.808-0.963-4.206-1.461c-1.387-0.529-2.799-0.992-4.132-1.65c-1.347-0.621-2.708-1.213-4.044-1.854l-3.92-2.102
			c-1.3-0.712-2.532-1.541-3.801-2.303l-0.945-0.583l-0.91-0.637l-1.82-1.272c-1.24-0.812-2.361-1.781-3.544-2.668
			c-1.173-0.9-2.258-1.903-3.389-2.85c-1.066-1.012-2.171-1.992-3.175-3.053c-0.51-0.504-0.993-1.022-1.462-1.547
			c0.184-0.222,0.371-0.444,0.622-0.665c0.397-0.367,0.754-0.747,1.179-1.108l1.284-1.083c0.907-0.698,1.801-1.406,2.762-2.071
			c0.934-0.685,1.922-1.326,2.891-1.983c1.973-1.283,3.987-2.526,6.032-3.727c1.024-0.599,2.054-1.189,3.089-1.77
			c1.032-0.572,2.088-1.157,3.103-1.69l3.185-1.673l-2.158-2.77c-1.135-1.457-2.238-2.937-3.545-4.276
			c-0.318-0.34-0.623-0.692-0.953-1.021l-1.03-0.956c-0.685-0.64-1.367-1.281-2.129-1.839c-1.456-1.191-3.036-2.229-4.656-3.179
			c-0.365-0.192-0.725-0.394-1.088-0.593l0.97-0.412c0.875-0.329,1.77-0.631,2.664-0.934c2.448,1.561,4.833,3.211,7.147,4.95
			c1.509,1.123,3,2.266,4.458,3.449c1.456,1.178,2.902,2.396,4.267,3.638l0.32,0.291l0.487-0.107
			c1.535-0.336,3.137-0.606,4.717-0.855c1.585-0.256,3.177-0.47,4.772-0.656c3.19-0.37,6.392-0.62,9.595-0.747
			c1.601-0.063,3.203-0.105,4.803-0.098c1.6-0.009,3.199,0.015,4.795,0.064c1.597,0.049,3.19,0.141,4.781,0.255
			c1.588,0.136,3.177,0.26,4.755,0.469c1.583,0.171,3.151,0.433,4.721,0.668c1.56,0.295,3.125,0.556,4.665,0.921
			c1.552,0.316,3.074,0.749,4.607,1.124c1.511,0.453,3.039,0.851,4.521,1.383c1.501,0.478,2.964,1.054,4.427,1.623
			c0.736,0.274,1.441,0.62,2.163,0.925c0.717,0.315,1.44,0.618,2.134,0.981l2.102,1.043l2.048,1.137
			c0.413,0.217,0.816,0.452,1.215,0.694c-0.556,0.629-1.091,1.272-1.612,1.928c-1.202,1.547-2.291,3.188-3.262,4.913
			c-0.969,1.726-1.81,3.543-2.48,5.446c-0.336,0.952-0.614,1.927-0.864,2.915c-0.22,0.997-0.424,2-0.54,3.024
			c-0.082,0.507-0.107,1.024-0.142,1.54c-0.041,0.515-0.068,1.031-0.053,1.551c-0.023,1.038,0.076,2.074,0.169,3.11
			c0.164,1.026,0.305,2.06,0.585,3.061c0.218,1.02,0.593,1.984,0.915,2.968c0.416,0.938,0.768,1.918,1.272,2.804l0.72,1.353
			l0.806,1.289c0.515,0.881,1.158,1.645,1.741,2.467c0.613,0.791,1.276,1.529,1.919,2.291l0.774,0.918l1.408,0.092l7.305,0.476
			c2.522,0.006,5.044-0.06,7.552-0.313c5.02-0.45,9.993-1.494,14.833-3.077c2.403-0.85,4.798-1.764,7.088-2.963
			c1.166-0.547,2.271-1.237,3.395-1.881c0.559-0.329,1.089-0.717,1.633-1.074c0.54-0.367,1.091-0.716,1.596-1.14l1.543-1.224
			c0.513-0.426,1.02-0.925,1.526-1.388l0.757-0.71c0.252-0.237,0.42-0.448,0.634-0.673l1.22-1.33l0.168-0.189l0.08-0.098l0.16-0.195
			l0.319-0.391l0.615-0.803c0.399-0.546,0.787-1.101,1.15-1.675c0.73-1.145,1.381-2.348,1.941-3.597
			c1.111-2.492,1.856-5.205,2.113-7.884l0.135-1.005l0.033-1.019l0.047-2.04c-0.026-0.679-0.106-1.358-0.161-2.036
			c-0.055-0.68-0.116-1.358-0.275-2.02l-0.408-1.997c-0.172-0.654-0.394-1.293-0.593-1.939c-0.357-1.312-0.984-2.5-1.492-3.743
			c-1.232-2.358-2.587-4.658-4.272-6.652c-3.268-4.091-7.272-7.364-11.493-10.155c-1.044-0.709-2.204-1.353-3.294-2.013
			l-1.591-0.853l-0.795-0.427l-0.11-0.059l-0.053-0.025l-0.106-0.05l-0.212-0.099l-0.424-0.198l-3.39-1.581
			c-1.118-0.556-2.306-0.936-3.456-1.41c-2.298-0.964-4.679-1.666-7.038-2.434c-1.179-0.385-2.393-0.636-3.587-0.957
			c-1.2-0.302-2.393-0.631-3.608-0.846l-3.629-0.723c-1.211-0.224-2.433-0.377-3.648-0.568c-2.428-0.414-4.877-0.589-7.314-0.865
			c-4.886-0.356-9.774-0.627-14.649-0.498c-2.439-0.004-4.868,0.158-7.299,0.245c-1.297,0.09-2.594,0.171-3.889,0.261l2.236-2.772
			c1.523-2.008,2.915-4.125,4.374-6.18c1.354-2.136,2.641-4.323,3.925-6.502l1.72-3.4c0.577-1.13,1.161-2.256,1.615-3.45
			l1.458-3.527c0.473-1.18,0.814-2.414,1.225-3.617l0.59-1.815c0.197-0.605,0.316-1.234,0.478-1.849
			c0.299-1.238,0.613-2.472,0.875-3.715l0.615-3.761c0.232-1.249,0.278-2.518,0.425-3.774c0.058-0.63,0.131-1.259,0.175-1.888
			l0.081-1.888c0.051-1.258,0.125-2.516,0.102-3.767c0.025-2.509-0.055-4.996-0.144-7.475l-0.347-7.377l-0.106-3.623
			c-0.013-1.219,0.022-2.461,0.031-3.69c0.039-1.153,0.193-2.356,0.282-3.538c0.148-1.18,0.43-2.34,0.636-3.517
			c0.317-1.148,0.65-2.299,1.006-3.443c0.461-1.103,0.819-2.26,1.367-3.332c0.534-1.078,1.039-2.178,1.692-3.198
			c0.317-0.514,0.6-1.053,0.945-1.551l1.039-1.495c1.444-1.948,2.989-3.852,4.748-5.556c1.748-1.711,3.61-3.333,5.667-4.692
			c-2.165,1.185-4.17,2.656-6.08,4.239c-1.918,1.579-3.667,3.366-5.277,5.277l-1.174,1.465c-0.391,0.49-0.723,1.023-1.087,1.534
			c-0.748,1.012-1.354,2.115-1.989,3.205c-0.648,1.083-1.11,2.264-1.674,3.399c-0.464,1.175-0.895,2.372-1.294,3.577
			c-0.294,1.233-0.661,2.458-0.892,3.71c-0.171,1.267-0.403,2.503-0.519,3.806c-0.079,1.232-0.183,2.451-0.241,3.695l-0.106,3.767
			l-0.039,7.401c-0.021,2.447-0.052,4.887-0.185,7.303c-0.03,1.214-0.157,2.413-0.259,3.613l-0.156,1.799
			c-0.069,0.597-0.166,1.189-0.247,1.783c-0.194,1.182-0.286,2.383-0.56,3.547l-0.734,3.505c-0.299,1.154-0.65,2.294-0.959,3.443
			c-0.17,0.57-0.296,1.153-0.5,1.713l-0.609,1.68c-0.423,1.113-0.771,2.252-1.251,3.343l-1.473,3.258
			c-0.455,1.1-1.042,2.143-1.621,3.189l-1.716,3.143c-1.285,2.021-2.564,4.047-3.909,6.028c-1.45,1.92-2.856,3.864-4.334,5.761
			l-3.885,4.63c-2.394,0.124-4.753,0.281-7.128,0.456c-2.781,0.213-5.559,0.461-8.336,0.735l-4.164,0.439l-4.16,0.505
			c-0.337,0.038-0.672,0.087-1.008,0.131c-0.154-0.555-0.32-1.157-0.502-1.814c-0.3-1.152-0.519-2.474-0.829-3.917
			c-0.148-0.725-0.303-1.48-0.462-2.262c-0.135-0.786-0.228-1.605-0.35-2.448c-0.215-1.687-0.539-3.477-0.635-5.346
			c-0.127-1.867-0.358-3.816-0.354-5.799c-0.049-1.986-0.121-4.021-0.024-6.053c0.029-1.022,0.058-2.043,0.088-3.061
			c0.075-1.017,0.149-2.031,0.223-3.036c0.11-2.026,0.399-3.994,0.61-5.927c0.26-1.919,0.555-3.778,0.864-5.539
			c0.342-1.751,0.644-3.426,1.016-4.946c0.333-1.535,0.704-2.924,1.029-4.163c0.335-1.234,0.653-2.306,0.924-3.186
			c0.546-1.76,0.925-2.75,0.925-2.75s-0.615,0.861-1.597,2.44c-0.49,0.79-1.074,1.758-1.72,2.885
			c-0.636,1.131-1.362,2.411-2.087,3.841c-0.764,1.417-1.495,2.992-2.297,4.662c-0.768,1.679-1.553,3.47-2.323,5.346
			c-0.721,1.889-1.543,3.836-2.197,5.873c-0.347,1.017-0.696,2.042-1.046,3.071c-0.306,1.045-0.613,2.095-0.92,3.145
			c-0.653,2.101-1.139,4.243-1.636,6.364c-0.55,2.115-0.855,4.238-1.242,6.295c-0.418,2.057-0.587,4.074-0.833,5.993
			c-0.108,0.96-0.237,1.897-0.317,2.806c-0.052,0.912-0.102,1.793-0.151,2.638c-0.08,1.695-0.212,3.262-0.218,4.65
			c0.012,1.105,0.023,2.092,0.033,2.955c-1.231,0.252-2.458,0.56-3.687,0.834l-2.065,0.48l-2.057,0.569
			c-1.37,0.405-2.749,0.703-4.11,1.197c-1.364,0.467-2.731,0.895-4.091,1.398l-4.059,1.699c-0.933,0.486-1.861,0.997-2.789,1.503
			l-1.032-0.304c-0.885-0.227-1.773-0.426-2.66-0.636c-0.888-0.203-1.775-0.339-2.663-0.51c-1.773-0.301-3.547-0.56-5.306-0.747
			c-1.766-0.215-3.513-0.353-5.265-0.501c-1.598-0.123-3.173-0.23-4.735-0.328l-5.323-0.743c0.431-1.063,0.859-2.126,1.281-3.196
			c0.931-2.362,1.847-4.731,2.729-7.119c0.883-2.39,1.732-4.793,2.512-7.245c0.404-1.216,0.767-2.462,1.135-3.707l0.521-1.893
			l0.468-1.948c0.294-1.316,0.523-2.808,0.645-3.991l0.456-3.749l0.913-7.498c0.6-5,1.239-9.995,1.8-15l0.021-0.188l0.002-0.065
			l0.408-15.179c0.202-0.602,0.496-1.338,0.784-1.994c0.343-0.793,0.729-1.578,1.125-2.36c0.804-1.561,1.716-3.08,2.682-4.568
			c0.481-0.746,1.012-1.461,1.507-2.2l1.602-2.143l1.7-2.075c0.581-0.681,1.194-1.336,1.789-2.007
			c0.586-0.68,1.249-1.289,1.87-1.939c0.62-0.651,1.274-1.269,1.942-1.873c1.299-1.25,2.697-2.391,4.081-3.553l3.589-2.935v90.026
			l9.225-3V498.85c1.364-1.204,2.7-2.441,4.047-3.664c1.351-1.275,2.724-2.52,4.049-3.821c1.336-1.288,2.649-2.601,3.943-3.934
			c1.316-1.308,2.554-2.699,3.831-4.045c1.213-1.412,2.495-2.753,3.627-4.235c1.19-1.427,2.257-2.957,3.328-4.472l1.44-2.387
			c0.428-0.824,0.785-1.685,1.177-2.518c-0.464,0.804-0.886,1.623-1.376,2.399l-1.617,2.235c-1.186,1.411-2.356,2.822-3.651,4.134
			c-1.238,1.355-2.585,2.617-3.88,3.918c-1.358,1.245-2.669,2.53-4.063,3.735c-1.368,1.229-2.758,2.436-4.167,3.621
			c-1.383,1.212-2.818,2.369-4.225,3.553c-0.821,0.664-1.644,1.323-2.464,1.987V386.462h63.852v-20.136h-40.836
			c0.911-16.117,8.045-30.989,8.12-31.145l7.84-16.143l-12.308,13.059c-2.475,2.625-9.113,6.739-11.462,8.103l-0.807,0.468
			l-0.354,0.862c-4.395,10.68-4.406,20.233-4.059,24.796h-3.439c-1.415-10.904,2.983-24.157,2.983-24.157
			c-12.744,4.935-26.586,1.165-26.586,1.165c2.523,12.342,6.443,19.255,9.486,22.991h-65.508v20.136h63.853v116.083
			c-1.916,1.451-3.836,2.895-5.783,4.329c-1.5,1.147-3.017,2.279-4.442,3.529c-0.73,0.604-1.448,1.223-2.133,1.88
			c-0.687,0.655-1.413,1.269-2.067,1.96c-0.663,0.681-1.343,1.347-1.993,2.043l-1.91,2.13l-1.819,2.217
			c-0.574,0.767-1.162,1.523-1.71,2.312c-0.493,0.708-0.971,1.429-1.439,2.158c-0.448-8.108-1.538-16.239-3.67-24.201
			c-1.086-4.01-2.435-7.977-4.158-11.817c-1.709-3.845-3.835-7.539-6.35-10.99l-0.73-1.002l-1.374-0.215
			c-0.128-0.02-0.47-0.081-0.725-0.137c-0.276-0.059-0.559-0.128-0.842-0.199c-0.568-0.147-1.138-0.32-1.706-0.505
			c-1.135-0.382-2.256-0.833-3.349-1.349c-2.182-1.039-4.263-2.31-6.159-3.817c-1.104-0.865-2.144-1.812-3.129-2.814
			c0.293,0.093,0.585,0.193,0.879,0.283c1.882,0.591,3.785,1.119,5.695,1.625c0.961,0.234,1.916,0.487,2.882,0.705
			c0.968,0.21,1.928,0.452,2.905,0.631c0.975,0.187,1.945,0.389,2.929,0.542l1.471,0.245l0.46,0.072l0.357,0.045l0.715,0.089
			c0.883,0.132,2.101,0.2,3.158,0.264c1.054,0.028,2.108,0.044,3.162-0.007c1.054-0.045,2.108-0.122,3.157-0.263
			c1.05-0.123,2.095-0.305,3.134-0.528c1.04-0.216,2.072-0.493,3.102-0.812c0.514-0.161,1.03-0.339,1.546-0.531l0.785-0.313
			c0.281-0.12,0.494-0.207,0.884-0.399l0.692-0.34l0.446-0.586l0.532-0.699l0.473-0.661c0.31-0.441,0.606-0.886,0.895-1.339
			c0.577-0.904,1.119-1.838,1.626-2.808c0.246-0.493,0.495-0.982,0.718-1.498c0.236-0.502,0.437-1.042,0.646-1.57
			c0.187-0.553,0.386-1.092,0.534-1.681c0.171-0.565,0.281-1.189,0.4-1.796l0.31-1.574l-1.17-1.32
			c-0.57-0.643-1.194-1.386-1.777-2.098c-0.587-0.724-1.167-1.455-1.723-2.196c-1.117-1.479-2.175-2.991-3.096-4.511
			c-0.46-0.761-0.872-1.519-1.246-2.269c-0.155-0.366-0.344-0.742-0.477-1.095c-0.121-0.355-0.251-0.651-0.407-1.165
			c-0.643-1.989-1.406-3.961-2.349-5.89c-1.874-3.845-4.497-7.517-7.956-10.386c-1.713-1.443-3.64-2.644-5.656-3.608
			c-0.357-0.165-0.719-0.318-1.081-0.471l6.549-8.288l4.382-5.547l-7.013-0.167c-0.573-0.014-0.943-0.003-1.396,0.009l-1.274,0.063
			c-0.84,0.055-1.671,0.129-2.495,0.228c-1.65,0.19-3.276,0.465-4.889,0.798c-3.223,0.673-6.382,1.607-9.446,2.791
			c-6.133,2.357-11.862,5.756-16.909,9.946c-5.037,4.206-9.385,9.19-12.902,14.649c-3.535,5.453-6.284,11.333-8.444,17.362
			c-2.147,6.04-3.679,12.244-4.781,18.488c-1.07,6.25-1.74,12.542-2.054,18.831c-0.147,3.145-0.217,6.29-0.205,9.43l0.014,2.355
			l0.017,1.199l0.03,1.161l0.121,4.643c0.052,3.08,0.265,6.244,0.391,9.359c0.194,3.123,0.393,6.236,0.666,9.352
			c0.532,6.232,1.329,12.458,2.422,18.649c1.118,6.185,2.638,12.332,4.692,18.309c2.043,5.981,4.648,11.755,7.534,17.302
			c2.888,5.55,5.993,10.9,8.906,16.326c2.015,3.744,3.919,7.537,5.698,11.39c0.579,1.549,1.255,3.057,2.013,4.518
			c0.1,0.234,0.208,0.465,0.307,0.699c2.393,5.666,4.513,11.454,6.456,17.309l1.399,4.412c0.471,1.47,0.868,2.962,1.307,4.443
			c0.894,2.958,1.631,5.96,2.441,8.945c0.799,2.988,1.478,6.007,2.223,9.011l2.003,9.07l-1.517-9.169
			c-0.584-3.042-1.103-6.101-1.743-9.136c-0.638-3.035-1.273-6.073-2.03-9.085c-0.374-1.506-0.708-3.024-1.115-4.522l-1.211-4.502
			c-0.836-2.973-1.725-5.935-2.682-8.876c1.209,1.429,2.477,2.8,3.811,4.089c2.744,2.659,5.728,5.014,8.856,7.12
			c-0.544,3.296-0.982,6.603-1.325,9.917c-0.431,4.017-0.684,8.048-0.864,12.076c-0.172,4.029-0.25,8.061-0.18,12.088
			c0.305-8.048,1.112-16.066,2.288-24.006c0.456-3.034,0.978-6.062,1.592-9.065c0.731,0.474,1.482,0.937,2.241,1.395
			c0.905,0.547,1.756,1.007,2.629,1.521c1.577,0.903,3.075,1.943,4.468,3.105c2.786,2.324,5.158,5.139,6.933,8.292l0.634,1.189
			c0.187,0.402,0.368,0.73,0.566,1.189l0.562,1.32l0.565,1.396l2.259,5.584c3.223,7.789,7.848,15.05,13.752,21.089
			c5.916,6.014,12.921,10.998,20.694,14.304c3.845,1.745,7.917,2.927,12.013,3.899c2.086,0.359,4.104,0.853,6.281,1.021
			c1.068,0.112,2.154,0.242,3.205,0.33l3.01,0.099l1.505,0.049l1.62-0.003l3.012-0.015l6.024-0.03l12.047-0.059l24.094-0.118
			l48.188-0.386l12.047-0.098l6.024-0.049c1.986-0.01,4.132-0.084,6.183-0.253c8.278-0.716,16.44-3.034,23.75-7.043
			c7.265-4.027,13.716-9.81,17.895-17.101c2.053-3.643,3.6-7.592,4.393-11.689c0.45-2.038,0.631-4.111,0.769-6.229l0.021-1.507
			l0.01-0.753c0.002-0.33-0.023-0.542-0.033-0.818L738.599,652.182z M602.798,601.689c2.382,0.024,4.764-0.029,7.138,0.084
			c4.754,0.097,9.482,0.469,14.18,0.979c2.335,0.344,4.687,0.587,6.993,1.06c1.155,0.221,2.319,0.404,3.466,0.656l3.428,0.801
			c4.539,1.16,9.024,2.514,13.308,4.329c1.064,0.466,2.173,0.838,3.2,1.379l3.123,1.532l0.721,0.353l0.787,0.442l1.573,0.885
			c0.951,0.612,1.892,1.15,2.826,1.813c3.742,2.58,7.22,5.563,9.893,9.066c1.411,1.704,2.488,3.592,3.479,5.493
			c0.38,0.992,0.901,1.942,1.155,2.966c0.148,0.505,0.327,1.004,0.457,1.513l0.299,1.543c0.128,0.51,0.165,1.032,0.2,1.553
			c0.035,0.521,0.101,1.04,0.12,1.561l-0.053,1.569l-0.023,0.784l-0.118,0.781c-0.21,2.117-0.781,4.095-1.636,5.995
			c-0.432,0.944-0.935,1.859-1.504,2.74c-0.283,0.441-0.588,0.87-0.901,1.294l-0.486,0.626l-0.427,0.515l-1.229,1.322
			c-0.202,0.209-0.416,0.466-0.608,0.635l-0.572,0.512c-0.389,0.341-0.737,0.692-1.152,1.031l-1.293,1.009
			c-3.478,2.668-7.56,4.655-11.824,6.153c-4.297,1.434-8.797,2.421-13.363,2.858c-2.281,0.248-4.576,0.319-6.865,0.331l-5.742-0.342
			c-0.282-0.316-0.561-0.634-0.824-0.961c-0.483-0.666-1.047-1.291-1.464-1.99l-0.674-1.025l-0.589-1.062
			c-0.424-0.697-0.692-1.449-1.044-2.173c-0.251-0.753-0.572-1.491-0.744-2.264c-0.236-0.76-0.347-1.543-0.496-2.32
			c-0.078-0.787-0.179-1.573-0.173-2.369c-0.024-0.396-0.009-0.795,0.016-1.193c0.02-0.398,0.025-0.798,0.085-1.196
			c0.072-0.798,0.221-1.593,0.375-2.388c0.187-0.792,0.392-1.582,0.651-2.363c0.515-1.563,1.185-3.095,1.979-4.578
			c0.793-1.484,1.714-2.916,2.719-4.29c0.508-0.683,1.028-1.36,1.578-2.007c0.532-0.629,1.152-1.314,1.651-1.803l2.607-2.557
			l-2.966-1.677c-1.466-0.829-2.88-1.751-4.393-2.487l-2.243-1.149l-2.29-1.044c-0.757-0.363-1.539-0.662-2.316-0.974
			c-0.781-0.302-1.547-0.643-2.339-0.91c-1.577-0.556-3.152-1.114-4.757-1.569c-1.589-0.51-3.214-0.88-4.823-1.303
			c-1.625-0.352-3.246-0.722-4.886-0.981c-1.631-0.308-3.277-0.507-4.915-0.739c-1.646-0.171-3.288-0.368-4.936-0.47
			c-1.645-0.141-3.295-0.195-4.941-0.26c-1.647-0.043-3.294-0.062-4.939-0.038c-1.644,0.03-3.288,0.062-4.928,0.171
			c-1.64,0.088-3.276,0.226-4.909,0.386c-3.265,0.32-6.513,0.765-9.738,1.331c-1.612,0.284-3.219,0.596-4.818,0.951
			c-1.464,0.329-2.906,0.688-4.367,1.103c-1.387-1.08-2.783-2.1-4.208-3.097c-1.557-1.085-3.13-2.145-4.739-3.147
			c-2.414-1.513-4.884-2.933-7.399-4.257c0.266-0.091,0.532-0.18,0.796-0.273c1.236-0.464,2.567-0.758,3.846-1.147l1.937-0.55
			l1.973-0.471c1.319-0.303,2.621-0.655,3.955-0.918l3.994-0.816c1.334-0.264,2.683-0.481,4.023-0.724
			c1.34-0.249,2.689-0.46,4.04-0.664c1.351-0.208,2.694-0.452,4.052-0.63l4.065-0.574l4.078-0.51
			c2.722-0.323,5.448-0.62,8.177-0.882c2.721-0.255,5.478-0.5,8.167-0.673l1.294-0.083l0.004-0.005
			c0.03-0.001,0.06-0.003,0.09-0.004C598.03,601.762,600.416,601.747,602.798,601.689z M565.622,344.463
			c0.813-0.486,2.142-1.297,3.653-2.28c-2.096,6.138-4.385,14.667-4.905,23.724H562.3
			C562.014,362.071,561.987,353.78,565.622,344.463z M480.348,379.872v-6.957h123.75v6.957H480.348z M496.551,438.704
			c0.309-1.071,8.015,1.148,7.707,2.219c-0.613,2.128-2.835,3.356-4.963,2.744C497.167,443.054,495.938,440.832,496.551,438.704z
			 M493.332,456.436c2.082-0.727,4.048-1.414,5.909-1.935c7.16-2.005,9.513-8.153,10.149-13.469
			c0.204,0.546,0.414,1.089,0.597,1.647c0.127,0.418,0.358,1.027,0.565,1.588c0.217,0.555,0.462,1.051,0.696,1.578
			c0.497,0.991,1.022,1.939,1.573,2.843c1.104,1.805,2.292,3.48,3.527,5.102c0.616,0.812,1.249,1.604,1.892,2.39
			c0.263,0.319,0.524,0.629,0.788,0.941c-0.071,0.225-0.148,0.453-0.221,0.68c-0.152,0.377-0.284,0.755-0.464,1.136
			c-0.161,0.381-0.355,0.762-0.541,1.143c-0.394,0.761-0.828,1.518-1.296,2.26c-0.234,0.37-0.477,0.738-0.726,1.096l-0.254,0.359
			l-0.317,0.128c-0.384,0.144-0.776,0.282-1.178,0.409c-0.804,0.252-1.628,0.479-2.468,0.657c-0.837,0.184-1.687,0.337-2.545,0.44
			c-0.855,0.12-1.719,0.185-2.583,0.227c-0.865,0.048-1.732,0.035-2.599,0.019c-0.86-0.06-1.565-0.063-2.585-0.206l-0.715-0.086
			l-0.339-0.041l-0.013-0.002l-0.086-0.014l-0.172-0.028l-1.372-0.223c-0.916-0.137-1.827-0.325-2.74-0.495
			c-3.651-0.697-7.282-1.591-10.866-2.657c-1.795-0.524-3.575-1.102-5.34-1.713c-0.194-0.067-0.384-0.14-0.578-0.208
			C483.827,459.738,488.854,458,493.332,456.436z M458.146,579.33c-2.67-5.517-5.009-11.134-6.806-16.932
			c-1.812-5.791-3.09-11.747-4.024-17.771c-0.935-6.025-1.588-12.109-1.983-18.228c-0.204-3.056-0.337-6.128-0.463-9.189
			l-0.12-4.591c-0.049-1.525-0.077-3.061-0.074-4.616l-0.025-4.644l-0.006-1.161l0.008-1.123l0.033-2.289
			c0.045-3.052,0.198-6.096,0.373-9.135c0.379-6.075,1.102-12.111,2.195-18.055c1.124-5.935,2.649-11.776,4.722-17.383
			c2.083-5.592,4.686-10.964,7.949-15.865c-0.464,3.124-0.054,6.374,1.289,9.349c1.227,2.716,2.636,4.967,4.231,6.78l-0.105-0.044
			l4.904,8.392c0.361,0.618,0.707,1.243,1.083,1.852c0.391,0.601,0.751,1.22,1.172,1.803c0.805,1.189,1.68,2.333,2.606,3.437
			c1.857,2.203,3.952,4.221,6.25,5.977c2.289,1.77,4.791,3.26,7.422,4.47c1.318,0.603,2.672,1.129,4.063,1.577
			c0.698,0.219,1.402,0.422,2.123,0.599c0.303,0.073,0.61,0.14,0.921,0.205c1.972,2.761,3.693,5.724,5.16,8.839
			c1.647,3.473,2.979,7.127,4.076,10.865c2.175,7.489,3.397,15.315,3.984,23.198c0.297,3.944,0.438,7.909,0.438,11.88
			c-0.001,1.971-0.027,3.945-0.08,5.918l-0.342,5.773c-0.748,4.949-1.421,9.907-2.131,14.861l-1.059,7.478l-0.53,3.739
			c-0.168,1.319-0.35,2.313-0.621,3.451l-0.447,1.715l-0.516,1.738c-0.37,1.162-0.733,2.327-1.146,3.493
			c-0.793,2.332-1.673,4.659-2.538,6.991c-0.878,2.329-1.793,4.652-2.723,6.968c-0.689,1.71-1.396,3.419-2.11,5.115
			c-1.18-0.161-2.36-0.326-3.539-0.516c-3.353-0.524-6.698-1.134-10.027-1.823c-1.665-0.343-3.326-0.707-4.979-1.091
			c-1.644-0.383-3.323-0.791-4.899-1.213l-3.814-1.021c-0.507-1.071-1.014-2.141-1.537-3.203
			C463.775,590.302,460.826,584.843,458.146,579.33z"/>
		<polygon style="fill:#3B2B16;" points="680.422,611.168 704.951,611.168 704.951,602.728 668.026,602.728 		"/>
		<path style="fill:#3B2B16;" d="M677.921,550.631c-10.447,2.573-19.504,9.928-20.602,21.17c-1.035,10.604,2.789,18.854,9.03,26.34
			h36.297c9.387-2.962,18.114-19.133,18.114-19.133c1.719,7.862-1.719,13.992-1.719,13.992h37.077c0,0-2.455-2.456-15.47-7.121
			c-11.458-4.107-18.552-14.589-26.54-23.108C704.233,552.237,692.525,547.034,677.921,550.631z M695.456,566.225
			c2.68,0,4.852,2.172,4.852,4.852c0,2.68-2.172,4.852-4.852,4.852c-2.68,0-4.852-2.172-4.852-4.852
			C690.604,568.398,692.776,566.225,695.456,566.225z"/>
		<path style="fill:#3B2B16;" d="M422.044,296.75l-2.371,1.547l1.221,2.527c0.112,0.231,0.152,0.294,0.221,0.422l0.181,0.307
			c0.12,0.204,0.239,0.377,0.36,0.557c0.243,0.355,0.49,0.687,0.751,1.002c0.516,0.636,1.066,1.215,1.647,1.752
			c0.527,0.489,1.076,0.947,1.648,1.362c-0.112,0.019-0.224,0.042-0.337,0.061c-3.6,0.616-7.21,1.178-10.82,1.629
			c-0.903,0.124-1.805,0.228-2.708,0.326c-0.902,0.095-1.806,0.216-2.707,0.291c-1.804,0.173-3.606,0.329-5.402,0.43
			c-0.901,0.07-1.795,0.098-2.688,0.126c-0.893,0.026-1.792,0.078-2.673,0.056c-0.882-0.013-1.776,0.007-2.648-0.031l-2.604-0.145
			l-3.822-0.212l0.458,3.616c0.071,0.558,0.134,0.859,0.219,1.257c0.081,0.375,0.173,0.738,0.274,1.097
			c0.204,0.717,0.435,1.419,0.709,2.104c0.272,0.686,0.576,1.359,0.918,2.014c0.342,0.655,0.709,1.299,1.125,1.915
			c0.405,0.622,0.849,1.221,1.328,1.793c0.474,0.575,0.978,1.129,1.522,1.64c0.531,0.525,1.106,1.005,1.695,1.461
			c0.589,0.46,1.21,0.867,1.839,1.262c0.642,0.366,1.283,0.74,1.954,1.037c0.659,0.331,1.345,0.573,2.023,0.842
			c0.689,0.213,1.374,0.469,2.071,0.622c0.694,0.187,1.391,0.334,2.089,0.448c0.698,0.145,1.394,0.198,2.091,0.289
			c0.696,0.077,1.388,0.097,2.083,0.145l2.066,0.016l0.223-0.01c0.268,0.43,0.545,0.849,0.838,1.256
			c0.668,0.919,1.409,1.779,2.212,2.582c1.606,1.605,3.496,2.954,5.562,3.946c2.065,0.991,4.299,1.614,6.531,1.86
			c2.235,0.241,4.458,0.144,6.598-0.189c1.074-0.155,2.124-0.391,3.155-0.66c0.529-0.151,0.994-0.254,1.574-0.448l1.404-0.464
			c2.033-0.737,3.895-1.521,5.734-2.377c1.836-0.853,3.634-1.754,5.405-2.689c1.771-0.936,3.524-1.894,5.252-2.885
			c6.93-3.937,13.592-8.236,20.166-12.648c6.358-4.297,12.644-8.663,18.805-13.249c8.376,2.602,16.737,5.254,25.13,7.807
			l12.96,3.966l12.982,3.901l-12.692-4.761l-12.714-4.696c-8.471-3.145-16.978-6.184-25.465-9.281l-0.681-0.249l-0.666,0.45
			c-3.247,2.191-6.537,4.363-9.825,6.513c-3.296,2.143-6.611,4.256-9.948,6.329c-3.336,2.074-6.696,4.105-10.081,6.082
			c-3.39,1.967-6.782,3.922-10.224,5.759c-1.717,0.926-3.448,1.815-5.186,2.677c-1.738,0.861-3.489,1.681-5.249,2.444
			c-1.755,0.766-3.553,1.455-5.24,2.025l-1.416,0.427c-0.357,0.113-0.858,0.216-1.28,0.326c-0.88,0.205-1.764,0.38-2.644,0.482
			c-3.522,0.472-7.002,0.055-9.958-1.427c-1.476-0.739-2.827-1.731-3.991-2.931c-0.581-0.6-1.121-1.246-1.601-1.93
			c-0.238-0.343-0.467-0.691-0.673-1.044l-0.292-0.526c-0.081-0.151-0.196-0.391-0.211-0.431l-0.675-1.806l-2.143,0.065
			l-1.757,0.054l-1.738-0.041c-0.57-0.053-1.147-0.074-1.71-0.147c-0.558-0.086-1.129-0.132-1.672-0.259
			c-0.553-0.098-1.095-0.222-1.623-0.375c-0.542-0.123-1.043-0.332-1.564-0.494c-0.495-0.213-1.008-0.393-1.477-0.645
			c-0.488-0.221-0.936-0.501-1.394-0.765c-0.439-0.29-0.875-0.582-1.281-0.912c-0.407-0.327-0.805-0.665-1.168-1.04
			c-0.375-0.361-0.72-0.754-1.045-1.163c-0.33-0.405-0.636-0.831-0.915-1.277c-0.289-0.439-0.541-0.904-0.779-1.376
			c-0.116-0.229-0.206-0.471-0.309-0.707c0.455,0.004,0.91,0.005,1.367,0.013c0.967,0.026,1.912-0.023,2.866-0.045
			c0.953-0.025,1.905-0.05,2.846-0.118c1.893-0.096,3.771-0.249,5.645-0.419c0.94-0.074,1.868-0.193,2.803-0.287
			c0.934-0.097,1.867-0.2,2.794-0.322c3.722-0.447,7.417-1.002,11.1-1.612c1.842-0.303,3.68-0.629,5.516-0.97
			c1.843-0.342,3.655-0.692,5.525-1.087l14.321-3.027l-14.44-3.283c-0.561-0.128-1.128-0.239-1.685-0.372
			c-0.539-0.171-1.102-0.295-1.624-0.494l-0.788-0.289c-0.269-0.086-0.507-0.222-0.763-0.328c-0.247-0.119-0.514-0.211-0.746-0.351
			l-0.72-0.386c-0.237-0.132-0.456-0.285-0.686-0.425c-0.234-0.136-0.445-0.296-0.658-0.453c-0.403-0.282-0.773-0.595-1.128-0.917
			l38.318-25.274l41.064-27.373l1.655-0.894l1.776-0.857c1.201-0.534,2.422-1.022,3.667-1.449c1.248-0.417,2.513-0.781,3.795-1.083
			c1.284-0.294,2.581-0.529,3.889-0.705c1.308-0.167,2.625-0.271,3.945-0.319c1.321-0.037,2.643-0.011,3.964,0.07l1.977,0.181
			l1.968,0.277l1.953,0.373l1.934,0.468l1.909,0.565l1.881,0.658l1.847,0.749l1.812,0.835c1.193,0.59,2.362,1.228,3.5,1.922
			c1.132,0.703,2.234,1.456,3.299,2.26c1.06,0.812,2.083,1.672,3.066,2.579c0.977,0.913,1.911,1.873,2.802,2.874
			c0.884,1.007,1.718,2.058,2.512,3.142l1.14,1.662l1.06,1.717l-0.222-0.852l0.222,0.853l0.973,1.77l0.887,1.816
			c0.279,0.613,0.53,1.239,0.798,1.858c0.252,0.625,0.472,1.263,0.713,1.894c0.441,1.276,0.827,2.572,1.151,3.886
			c0.315,1.316,0.57,2.647,0.764,3.99c0.185,1.344,0.306,2.697,0.368,4.056c0.051,1.359,0.038,2.721-0.032,4.082
			c-0.041,0.68-0.112,1.358-0.166,2.039l-0.266,2.031l-0.365,2.018l-0.462,2l-0.554,1.98l-0.651,1.953l-0.746,1.921
			c-0.281,0.627-0.548,1.262-0.841,1.885c-0.598,1.24-1.249,2.457-1.957,3.643c-0.718,1.18-1.487,2.329-2.312,3.442
			c-0.834,1.105-1.709,2.181-2.636,3.216c-0.933,1.029-1.917,2.014-2.944,2.957c-1.034,0.935-2.115,1.819-3.231,2.662l-1.712,1.212
			l-1.774,1.132l1.845-1.011l1.8-1.102c1.178-0.772,2.326-1.59,3.435-2.466c1.101-0.883,2.166-1.816,3.186-2.8
			c1.014-0.99,1.984-2.027,2.896-3.116c0.908-1.093,1.764-2.23,2.57-3.405c0.797-1.181,1.538-2.4,2.229-3.651
			c0.339-0.628,0.652-1.271,0.98-1.907l0.886-1.955l0.791-1.998l0.693-2.037l0.584-2.074l0.481-2.103l0.378-2.126
			c0.091-0.714,0.197-1.427,0.274-2.144c0.14-1.435,0.22-2.877,0.231-4.323c0-1.445-0.063-2.892-0.195-4.335
			c-0.141-1.442-0.348-2.878-0.622-4.304c-0.283-1.424-0.633-2.836-1.046-4.231c-0.419-1.394-0.922-2.761-1.473-4.11l-0.889-1.997
			l-0.984-1.953l0.222,0.852l-0.222-0.853l-1.082-1.902l-1.174-1.85c-0.82-1.21-1.689-2.388-2.616-3.523
			c-0.934-1.128-1.919-2.216-2.955-3.256c-1.042-1.034-2.132-2.019-3.267-2.954c-1.14-0.927-2.325-1.801-3.548-2.621
			c-1.228-0.812-2.495-1.564-3.793-2.264c-0.651-0.345-1.319-0.658-1.98-0.985l-2.029-0.884l-2.071-0.784l-2.108-0.683l-2.14-0.577
			l-2.167-0.473l-2.189-0.367c-0.735-0.086-1.469-0.188-2.206-0.259c-1.476-0.129-2.957-0.197-4.441-0.193
			c-1.484,0.014-2.967,0.094-4.445,0.244c-1.477,0.159-2.947,0.386-4.405,0.682c-1.456,0.304-2.898,0.677-4.322,1.114
			c-1.421,0.446-2.819,0.963-4.195,1.534l-2.037,0.919l-1.989,1.02l-0.05,0.025l-0.118,0.076l-41.549,26.823L422.044,296.75z"/>
		<path style="fill:#3B2B16;" d="M499.282,307.914c-37.734,28.415-53.944,32.691-53.944,32.691l12.131,0.462
			c10.568,0.403,21.003-2.458,29.888-8.194l29.036-18.745L499.282,307.914z"/>
		<path style="fill:#3B2B16;" d="M510.592,339.627l29.036-17.664l-17.111-5.133c-34.492,24.274-42.057,25.355-42.057,25.355
			S499.102,345.198,510.592,339.627z"/>
		<path style="fill:#3B2B16;" d="M574.209,273.603c3.158,23.682-3.228,37.06-26.534,50.676c-2.182-0.39-4.625-1.055-4.625-1.055
			l-22.334,14.186c0,0,30.455,9.138,49.539-9.233c19.084-18.371,21.516-22.694,21.516-22.694s0.946-6.754,3.242-11.347
			c0,0-15.535-3.107-17.831-5.133c0,0,12.293-12.563,13.103-14.724c0,0-11.212-2.342-17.966-20.488c0,0,10.536,1.036,16.345-1.666
			c0,0-8.51-5.449-6.169-23.82c0,0,7.745,5.763,15.67,7.745c0,0-1.801-6.304-1.621-9.366c0,0-19.633-13.328-59.798,7.385
			C536.746,234.068,570.046,242.38,574.209,273.603z"/>
		<path style="fill:#3B2B16;" d="M586.668,234.862c0,0,0.786,14.438,10.411,17.875c0,0-11.443,6.188-17.286,5.156
			c0,0,5.5,14.438,19.938,14.094l-16.5,15.41c0,0,12.719,2.692,22.344,0c0,0-8.938,6.934-9.969,21.027
			c2.404-1.884,8.485-4.481,9.548-4.93c8.732-3.696,18.058-3.807,27.466-4.891c7.478-0.861,14.693-0.253,21.255-2.804
			c3.564-1.385,6.421-4.149,8.085-7.591l0.865-1.789c0,0-17.311,2.765-22.154,6.906l17.867-29.536
			c2.107-3.355,7.797-4.029,10.776-1.417l0.124,0.109c-0.256-9.324-4.076-14.576-11.833-19.746
			c-7.316-4.875-14.872-4.884-23.187-5.913c-12.701-1.572-25.98-3.97-31.078-16.593c0,0-4.542,10.164,3.708,22.539
			C607.048,242.768,593.543,241.393,586.668,234.862z M648.101,253.79c2.91,0,5.268,2.359,5.268,5.268
			c0,2.91-2.359,5.268-5.268,5.268c-2.909,0-5.268-2.359-5.268-5.268C642.833,256.149,645.191,253.79,648.101,253.79z"/>
		<path style="fill:#3B2B16;" d="M660.145,267.155l-12.646,20.1c0,0,6.377-3.013,13.572-3.811c1.102-0.122,2.223-0.193,3.343-0.193
			c2.01,0,4.018,0.228,5.908,0.793c10.412,3.114,15.859,16.78,15.859,16.78s2.065-10.533,2.066-10.538
			c1.073-5.472-0.213-11.232-3.509-15.73c-1.609-2.196-3.663-4.059-6.009-5.44c-2.119-1.247-4.487-1.725-6.728-2.622
			c-0.86-0.345-1.702-0.751-2.503-1.286c-0.004-0.003-0.009-0.006-0.014-0.009c-1.144-0.77-2.44-1.138-3.72-1.138
			C663.563,264.06,661.408,265.148,660.145,267.155z M666.456,269.674l0.031,0.021l0.006,0.004l0.002,0.001
			c1.029,0.688,2.173,1.279,3.496,1.809c0.948,0.38,1.848,0.675,2.718,0.961c1.291,0.424,2.406,0.79,3.278,1.303
			c1.699,1,3.217,2.375,4.391,3.977c1.827,2.494,2.807,5.499,2.836,8.551c-3.43-3.71-7.231-6.202-11.345-7.433
			c-2.262-0.676-4.771-1.02-7.456-1.02c-1.263,0-2.588,0.076-3.939,0.226c-0.296,0.033-0.591,0.069-0.883,0.108l5.127-8.149
			c0.323-0.514,0.839-0.569,1.045-0.569c0.247,0,0.48,0.071,0.691,0.209L666.456,269.674z"/>
		<path style="fill:#3B2B16;" d="M618.804,466.194c16.325,7.535,4.452,32.536,39.728,23.631
			c35.275-8.905,17.466-31.508,23.631-33.563c6.165-2.055,2.85-13.589,2.85-13.589l-34.186-10.296
			c-4.227-1.14-7.716-4.12-9.504-8.115l-1.345-3.007c-1.064-2.378-2.966-4.282-5.343-5.35l-16.697-7.33
			c-1.763-0.774-3.667-1.173-5.592-1.173h-13.475c-12.467,0-22.573,10.106-22.573,22.573v28.486c0,10.76,8.723,19.483,19.483,19.483
			h0c10.76,0,19.483-8.723,19.483-19.483v-41.413c0,0,4.452,2.74,4.452,16.61v19.521
			C619.717,462.427,618.804,466.194,618.804,466.194z M634.413,431.191c2.058,0,3.726,1.668,3.726,3.726
			c0,2.058-1.668,3.726-3.726,3.726s-3.726-1.668-3.726-3.726C630.687,432.859,632.355,431.191,634.413,431.191z"/>
		<path style="fill:#3B2B16;" d="M511.154,671.038c-7.667-18.698-8.667-24.365-16.667-26.031c0,0-2.768,18.583-1.667,26.031
			c0,0,19.667,6.302,18.667,28.969h30.736C542.223,700.007,518.82,689.736,511.154,671.038z"/>
	</g>
</g>
</svg>
